<svg width="206" height="48" viewBox="0 0 206 48" fill="none" xmlns="http://www.w3.org/2000/svg">
    <g clip-path="url(#clip0_1170_11336)">
        <path d="M181.62 0.436523H24.5295C11.5156 0.436523 0.96582 10.9863 0.96582 24.0002C0.96582 37.014 11.5156 47.5638 24.5295 47.5638H181.62C194.634 47.5638 205.184 37.014 205.184 24.0002C205.184 10.9863 194.634 0.436523 181.62 0.436523Z" fill="#1F1F1F"/>
        <path d="M50.2746 20.7631H18.8564V15.8362C18.8564 13.1615 21.1624 10.9092 23.9006 10.9092H45.2304C47.9687 10.9092 50.2746 13.1615 50.2746 15.8362V20.7631Z" fill="#34A853"/>
        <path d="M50.2746 25.3087H18.8564V20.0723C18.8564 17.2297 21.1624 14.8359 23.9006 14.8359H45.2304C47.9687 14.8359 50.2746 17.2297 50.2746 20.0723V25.3087Z" fill="#FBBC04"/>
        <path d="M50.2746 29.6729H18.8564V24.4366C18.8564 21.594 21.1624 19.2002 23.9006 19.2002H45.2304C47.9687 19.2002 50.2746 21.594 50.2746 24.4366V29.6729Z" fill="#EA4335"/>
        <path d="M18.8564 22.0286L38.7977 26.5333C41.0931 27.0964 43.6754 26.5333 45.5403 25.1256L50.2746 21.7471V32.3048C50.2746 34.9794 47.9793 37.091 45.2535 37.091H23.8776C21.1518 37.091 18.8564 34.9794 18.8564 32.3048V22.0286Z" fill="url(#paint0_linear_1170_11336)"/>
        <path d="M61.666 18.7633V10.64H64.457C64.9486 10.64 65.3949 10.7459 65.7958 10.9577C66.1966 11.1695 66.5143 11.4606 66.7488 11.8313C66.9908 12.2019 67.1118 12.633 67.1118 13.1246C67.1118 13.6163 66.9908 14.0512 66.7488 14.4294C66.5143 14.8 66.1966 15.0912 65.7958 15.303C65.3949 15.5072 64.9486 15.6093 64.457 15.6093H62.914V18.7633H61.666ZM64.491 11.8199H62.914V14.4294H64.491C64.786 14.4294 65.0356 14.3689 65.2398 14.2478C65.4441 14.1193 65.5991 13.9566 65.705 13.76C65.8185 13.5558 65.8752 13.344 65.8752 13.1246C65.8752 12.9053 65.8185 12.6973 65.705 12.5006C65.5991 12.304 65.4441 12.1413 65.2398 12.0128C65.0356 11.8842 64.786 11.8199 64.491 11.8199ZM68.1871 18.7633V12.9772H69.3444V13.8281H69.4124C69.541 13.5331 69.7603 13.2911 70.0705 13.102C70.3881 12.9053 70.7285 12.807 71.0916 12.807C71.2504 12.807 71.3827 12.8183 71.4886 12.841C71.6021 12.8637 71.7042 12.8901 71.795 12.9204V14.1911C71.6512 14.1306 71.5037 14.0814 71.3525 14.0436C71.2088 14.0058 71.0575 13.9869 70.8987 13.9869C70.6112 13.9869 70.3541 14.0663 70.1272 14.2252C69.9078 14.3764 69.7339 14.5845 69.6053 14.8492C69.4767 15.1064 69.4124 15.39 69.4124 15.7001V18.7633H68.1871ZM73.4442 12.1262C73.2173 12.1262 73.0206 12.0468 72.8542 11.888C72.6954 11.7216 72.6159 11.5249 72.6159 11.298C72.6159 11.0711 72.6954 10.8782 72.8542 10.7194C73.0206 10.5606 73.2173 10.4812 73.4442 10.4812C73.6711 10.4812 73.8639 10.5606 74.0228 10.7194C74.1892 10.8782 74.2724 11.0711 74.2724 11.298C74.2724 11.5249 74.1892 11.7216 74.0228 11.888C73.8639 12.0468 73.6711 12.1262 73.4442 12.1262ZM72.8315 18.7633V12.9772H74.0568V18.7633H72.8315ZM77.9951 18.9449C77.4732 18.9449 77.0004 18.8163 76.5769 18.5591C76.1609 18.2944 75.8281 17.9314 75.5785 17.47C75.3364 17.001 75.2155 16.4678 75.2155 15.8702C75.2155 15.2727 75.3364 14.7433 75.5785 14.2819C75.8281 13.8205 76.1609 13.4574 76.5769 13.1927C77.0004 12.928 77.4732 12.7956 77.9951 12.7956C78.4413 12.7956 78.8233 12.894 79.141 13.0906C79.4662 13.2872 79.7044 13.5104 79.8557 13.76H79.9238L79.8557 12.9545V10.64H81.0697V18.7633H79.9238V17.9918H79.8557C79.7044 18.2414 79.4662 18.4646 79.141 18.6612C78.8233 18.8504 78.4413 18.9449 77.9951 18.9449ZM78.1766 17.8217C78.4791 17.8217 78.7627 17.7422 79.0275 17.5834C79.2998 17.4246 79.5154 17.2014 79.6742 16.914C79.8406 16.6191 79.9238 16.2711 79.9238 15.8702C79.9238 15.4694 79.8406 15.1252 79.6742 14.8378C79.5154 14.5428 79.2998 14.3159 79.0275 14.1571C78.7627 13.9982 78.4791 13.9188 78.1766 13.9188C77.874 13.9188 77.5904 13.9982 77.3257 14.1571C77.0609 14.3159 76.8454 14.5428 76.679 14.8378C76.5126 15.1252 76.4294 15.4694 76.4294 15.8702C76.4294 16.2711 76.5126 16.6191 76.679 16.914C76.8454 17.2014 77.0609 17.4246 77.3257 17.5834C77.5904 17.7422 77.874 17.8217 78.1766 17.8217ZM84.2728 18.9449C83.8568 18.9449 83.4862 18.8654 83.1609 18.7066C82.8358 18.5402 82.5823 18.3095 82.4008 18.0145C82.2193 17.7196 82.1285 17.3829 82.1285 17.0048C82.1285 16.5964 82.2345 16.2484 82.4462 15.961C82.6656 15.666 82.9567 15.4429 83.3198 15.2916C83.6828 15.1404 84.0838 15.0647 84.5224 15.0647C84.8854 15.0647 85.2031 15.0988 85.4754 15.1668C85.7553 15.2349 85.9671 15.3067 86.1108 15.3824V15.0761C86.1108 14.6979 85.9746 14.3953 85.7023 14.1684C85.43 13.9415 85.0783 13.8281 84.6472 13.8281C84.3522 13.8281 84.0724 13.8961 83.8076 14.0323C83.5429 14.1608 83.3311 14.3386 83.1723 14.5655L82.3327 13.9188C82.5823 13.5709 82.9113 13.2986 83.3198 13.102C83.7358 12.8977 84.1896 12.7956 84.6812 12.7956C85.5208 12.7956 86.1675 13.0036 86.6213 13.4196C87.0751 13.8281 87.302 14.4029 87.302 15.1441V18.7633H86.1108V18.0486H86.0427C85.8914 18.2831 85.6645 18.491 85.362 18.6726C85.0595 18.8541 84.6964 18.9449 84.2728 18.9449ZM84.4884 17.9465C84.806 17.9465 85.0859 17.8708 85.3279 17.7196C85.57 17.5683 85.759 17.3716 85.8952 17.1296C86.0389 16.88 86.1108 16.6115 86.1108 16.3241C85.9368 16.2257 85.7326 16.1463 85.4981 16.0858C85.2637 16.0177 85.0141 15.9837 84.7493 15.9837C84.2501 15.9837 83.8946 16.0858 83.6828 16.29C83.4711 16.4867 83.3652 16.7288 83.3652 17.0161C83.3652 17.2884 83.4673 17.5116 83.6715 17.6855C83.8757 17.8595 84.148 17.9465 84.4884 17.9465ZM89.1526 17.0842V14.0436H88.1428V12.9772H89.1526V11.3434H90.3779V12.9772H91.7961V14.0436H90.3779V16.8233C90.3779 17.1107 90.4346 17.3301 90.5481 17.4813C90.6694 17.6325 90.8701 17.7082 91.1494 17.7082C91.2934 17.7082 91.4147 17.6893 91.5124 17.6515C91.6189 17.6137 91.7245 17.5607 91.8301 17.4927V18.6839C91.7018 18.7369 91.5657 18.7784 91.4217 18.8087C91.2785 18.839 91.1083 18.8541 90.9111 18.8541C90.3744 18.8541 89.9467 18.699 89.6291 18.3889C89.3114 18.0713 89.1526 17.6364 89.1526 17.0842ZM91.0132 12.3078V10.64H92.1591L91.8755 12.3078H91.0132ZM98.016 18.9449C97.4941 18.9449 97.0211 18.8163 96.5978 18.5591C96.1815 18.2944 95.849 17.9314 95.5994 17.47C95.3568 17.001 95.2363 16.4678 95.2363 15.8702C95.2363 15.2727 95.3568 14.7433 95.5994 14.2819C95.849 13.8205 96.1815 13.4574 96.5978 13.1927C97.0211 12.928 97.4941 12.7956 98.016 12.7956C98.4619 12.7956 98.8442 12.894 99.1619 13.0906C99.4865 13.2872 99.7248 13.5104 99.8766 13.76H99.9447L99.8766 12.9545V10.64H101.091V18.7633H99.9447V17.9918H99.8766C99.7248 18.2414 99.4865 18.4646 99.1619 18.6612C98.8442 18.8504 98.4619 18.9449 98.016 18.9449ZM98.1975 17.8217C98.4995 17.8217 98.7831 17.7422 99.0484 17.5834C99.3207 17.4246 99.5363 17.2014 99.6951 16.914C99.8609 16.6191 99.9447 16.2711 99.9447 15.8702C99.9447 15.4694 99.8609 15.1252 99.6951 14.8378C99.5363 14.5428 99.3207 14.3159 99.0484 14.1571C98.7831 13.9982 98.4995 13.9188 98.1975 13.9188C97.8947 13.9188 97.611 13.9982 97.3466 14.1571C97.0813 14.3159 96.8657 14.5428 96.6999 14.8378C96.5332 15.1252 96.4503 15.4694 96.4503 15.8702C96.4503 16.2711 96.5332 16.6191 96.6999 16.914C96.8657 17.2014 97.0813 17.4246 97.3466 17.5834C97.611 17.7422 97.8947 17.8217 98.1975 17.8217ZM105.201 18.9449C104.603 18.9449 104.078 18.8087 103.624 18.5364C103.17 18.2641 102.815 17.8973 102.558 17.4359C102.3 16.9745 102.172 16.4526 102.172 15.8702C102.172 15.2954 102.3 14.7773 102.558 14.3159C102.815 13.847 103.17 13.4764 103.624 13.2041C104.078 12.9318 104.603 12.7956 105.201 12.7956C105.791 12.7956 106.313 12.9318 106.767 13.2041C107.221 13.4764 107.576 13.847 107.833 14.3159C108.091 14.7773 108.219 15.2954 108.219 15.8702C108.219 16.4526 108.091 16.9745 107.833 17.4359C107.576 17.8973 107.221 18.2641 106.767 18.5364C106.313 18.8087 105.791 18.9449 105.201 18.9449ZM105.201 17.8217C105.519 17.8217 105.814 17.746 106.086 17.5948C106.358 17.4359 106.577 17.2128 106.744 16.9254C106.918 16.6304 107.005 16.2787 107.005 15.8702C107.005 15.4618 106.918 15.1139 106.744 14.8265C106.577 14.5315 106.358 14.3083 106.086 14.1571C105.814 13.9982 105.519 13.9188 105.201 13.9188C104.883 13.9188 104.585 13.9982 104.305 14.1571C104.033 14.3083 103.809 14.5315 103.635 14.8265C103.469 15.1139 103.386 15.4618 103.386 15.8702C103.386 16.2787 103.469 16.6304 103.635 16.9254C103.809 17.2128 104.033 17.4359 104.305 17.5948C104.585 17.746 104.883 17.8217 105.201 17.8217ZM114.106 18.9449C113.41 18.9449 112.854 18.7936 112.438 18.491C112.022 18.181 111.734 17.8141 111.576 17.3905L112.676 16.914C112.812 17.2241 113.009 17.4624 113.266 17.6288C113.523 17.7876 113.815 17.867 114.14 17.867C114.442 17.867 114.703 17.8141 114.922 17.7082C115.142 17.5948 115.251 17.4132 115.251 17.1636C115.251 16.9216 115.142 16.7438 114.922 16.6304C114.703 16.5169 114.431 16.4186 114.106 16.3354L113.414 16.1766C113.134 16.1085 112.873 16.0026 112.631 15.8589C112.389 15.7152 112.193 15.5299 112.041 15.303C111.89 15.0685 111.814 14.7962 111.814 14.4861C111.814 14.1457 111.916 13.8508 112.12 13.6012C112.324 13.344 112.593 13.1473 112.926 13.0112C113.266 12.8675 113.633 12.7956 114.026 12.7956C114.564 12.7956 115.032 12.9015 115.433 13.1133C115.841 13.3175 116.141 13.6276 116.329 14.0436L115.274 14.5201C115.138 14.2629 114.961 14.0853 114.741 13.9869C114.53 13.881 114.295 13.8281 114.038 13.8281C113.75 13.8281 113.509 13.8885 113.311 14.0096C113.123 14.1306 113.028 14.2819 113.028 14.4634C113.028 14.66 113.112 14.8151 113.277 14.9286C113.452 15.042 113.663 15.1328 113.913 15.2009L114.752 15.4051C115.327 15.5488 115.759 15.7681 116.046 16.0631C116.334 16.3505 116.477 16.7022 116.477 17.1182C116.477 17.4889 116.371 17.8141 116.159 18.094C115.948 18.3662 115.66 18.5781 115.297 18.7293C114.942 18.873 114.545 18.9449 114.106 18.9449ZM117.558 18.7633V10.64H118.783V18.7633H117.558ZM122.327 18.9449C121.615 18.9449 121.079 18.7331 120.716 18.3095C120.36 17.8784 120.182 17.296 120.182 16.5623V12.9772H121.408V16.3921C121.408 16.8837 121.521 17.2468 121.748 17.4813C121.983 17.7082 122.273 17.8217 122.622 17.8217C122.931 17.8217 123.2 17.7422 123.427 17.5834C123.662 17.417 123.839 17.2053 123.96 16.9481C124.089 16.6834 124.153 16.3959 124.153 16.0858V12.9772H125.367V18.7633H124.221V17.9805H124.153C123.987 18.2528 123.737 18.4835 123.404 18.6726C123.079 18.8541 122.72 18.9449 122.327 18.9449ZM126.68 18.7633V17.7422L129.902 14.0436H126.782V12.9772H131.4V13.9983L128.189 17.6969H131.49V18.7633H126.68ZM128.563 11.8653L127.349 10.4925V10.4131H128.518L129.04 11.1165H129.153L129.686 10.4131H130.866V10.4925L129.641 11.8653H128.563ZM135.834 18.9449C135.387 18.9449 135.001 18.8504 134.677 18.6612C134.359 18.4646 134.124 18.2414 133.973 17.9918H133.905V18.7633H132.748V10.64H133.973V12.9545L133.905 13.76H133.973C134.124 13.5104 134.359 13.2872 134.677 13.0906C135.001 12.894 135.387 12.7956 135.834 12.7956C136.363 12.7956 136.836 12.928 137.252 13.1927C137.667 13.4574 137.996 13.8205 138.239 14.2819C138.489 14.7433 138.614 15.2727 138.614 15.8702C138.614 16.4678 138.489 17.001 138.239 17.47C137.996 17.9314 137.667 18.2944 137.252 18.5591C136.836 18.8163 136.363 18.9449 135.834 18.9449ZM135.652 17.8217C135.954 17.8217 136.238 17.7422 136.503 17.5834C136.768 17.4246 136.983 17.2014 137.15 16.914C137.316 16.6191 137.4 16.2711 137.4 15.8702C137.4 15.4694 137.316 15.1252 137.15 14.8378C136.983 14.5428 136.768 14.3159 136.503 14.1571C136.238 13.9982 135.954 13.9188 135.652 13.9188C135.35 13.9188 135.066 13.9982 134.801 14.1571C134.536 14.3159 134.321 14.5428 134.155 14.8378C133.988 15.1252 133.905 15.4694 133.905 15.8702C133.905 16.2711 133.988 16.6191 134.155 16.914C134.321 17.2014 134.536 17.4246 134.801 17.5834C135.066 17.7422 135.35 17.8217 135.652 17.8217ZM141.491 20.9303C141.468 20.9908 141.442 21.0475 141.411 21.1005C141.389 21.1535 141.374 21.1913 141.366 21.214H140.061C140.1 21.1308 140.152 21.0097 140.22 20.8509C140.296 20.6997 140.368 20.5522 140.436 20.4084C140.504 20.2647 140.576 20.1021 140.651 19.9206C140.735 19.739 140.818 19.5613 140.901 19.3873L141.332 18.4457L138.915 12.9772H140.277L141.933 16.9254H141.99L143.59 12.9772H144.94L141.945 19.8752C141.862 20.0718 141.771 20.276 141.672 20.4878C141.582 20.7072 141.521 20.8547 141.491 20.9303Z" fill="white"/>
        <path d="M66.9787 36.4558C66.217 36.4558 65.5 36.3173 64.8274 36.0404C64.1647 35.7634 63.5762 35.3777 63.0619 34.8831C62.5476 34.3787 62.142 33.7902 61.8453 33.1176C61.5584 32.4351 61.415 31.6983 61.415 30.907C61.415 30.1157 61.5584 29.3838 61.8453 28.7112C62.142 28.0287 62.5426 27.4402 63.047 26.9457C63.5613 26.4412 64.1548 26.0505 64.8274 25.7736C65.5 25.4967 66.217 25.3582 66.9787 25.3582C67.7897 25.3582 68.5365 25.5016 69.219 25.7884C69.9113 26.0753 70.4899 26.4759 70.9548 26.9902L69.8273 28.1029C69.481 27.7172 69.0656 27.4204 68.581 27.2127C68.1062 27.005 67.5721 26.9012 66.9787 26.9012C66.2764 26.9012 65.6286 27.0693 65.0351 27.4056C64.4417 27.732 63.9619 28.1969 63.596 28.8002C63.2399 29.3937 63.0619 30.0959 63.0619 30.907C63.0619 31.718 63.2449 32.4253 63.6108 33.0286C63.9768 33.622 64.4565 34.0869 65.0499 34.4232C65.6434 34.7496 66.2912 34.9128 66.9935 34.9128C67.6364 34.9128 68.22 34.7941 68.7442 34.5567C69.2685 34.3095 69.6888 33.9633 70.0053 33.5182C70.3317 33.0731 70.5295 32.539 70.5988 31.9158H66.9638V30.4767H72.1269C72.1862 30.7438 72.2159 31.0257 72.2159 31.3224V31.3372C72.2159 32.3659 71.9884 33.266 71.5334 34.0374C71.0883 34.7991 70.4702 35.3925 69.6789 35.8178C68.8876 36.2431 67.9875 36.4558 66.9787 36.4558ZM76.9931 36.4558C76.2117 36.4558 75.5243 36.2777 74.9309 35.9217C74.3374 35.5656 73.8725 35.0859 73.5363 34.4825C73.1999 33.8792 73.0318 33.1967 73.0318 32.4351C73.0318 31.6834 73.1999 31.0059 73.5363 30.4025C73.8725 29.7893 74.3374 29.3046 74.9309 28.9486C75.5243 28.5925 76.2117 28.4145 76.9931 28.4145C77.7646 28.4145 78.4471 28.5925 79.0406 28.9486C79.634 29.3046 80.0988 29.7893 80.4352 30.4025C80.7714 31.0059 80.9396 31.6834 80.9396 32.4351C80.9396 33.1967 80.7714 33.8792 80.4352 34.4825C80.0988 35.0859 79.634 35.5656 79.0406 35.9217C78.4471 36.2777 77.7646 36.4558 76.9931 36.4558ZM76.9931 34.987C77.4086 34.987 77.7943 34.8881 78.1504 34.6902C78.5064 34.4825 78.7932 34.1908 79.0109 33.8149C79.2383 33.4292 79.3521 32.9692 79.3521 32.4351C79.3521 31.901 79.2383 31.4461 79.0109 31.0702C78.7932 30.6844 78.5064 30.3927 78.1504 30.1948C77.7943 29.9871 77.4086 29.8833 76.9931 29.8833C76.5777 29.8833 76.187 29.9871 75.8211 30.1948C75.465 30.3927 75.1731 30.6844 74.9457 31.0702C74.7281 31.4461 74.6193 31.901 74.6193 32.4351C74.6193 32.9692 74.7281 33.4292 74.9457 33.8149C75.1731 34.1908 75.465 34.4825 75.8211 34.6902C76.187 34.8881 76.5777 34.987 76.9931 34.987ZM85.976 36.4558C85.1947 36.4558 84.5072 36.2777 83.9138 35.9217C83.3203 35.5656 82.8555 35.0859 82.5192 34.4825C82.1829 33.8792 82.0147 33.1967 82.0147 32.4351C82.0147 31.6834 82.1829 31.0059 82.5192 30.4025C82.8555 29.7893 83.3203 29.3046 83.9138 28.9486C84.5072 28.5925 85.1947 28.4145 85.976 28.4145C86.7475 28.4145 87.43 28.5925 88.0236 28.9486C88.6171 29.3046 89.0822 29.7893 89.4182 30.4025C89.7542 31.0059 89.9227 31.6834 89.9227 32.4351C89.9227 33.1967 89.7542 33.8792 89.4182 34.4825C89.0822 35.0859 88.6171 35.5656 88.0236 35.9217C87.43 36.2777 86.7475 36.4558 85.976 36.4558ZM85.976 34.987C86.3914 34.987 86.7772 34.8881 87.1333 34.6902C87.4893 34.4825 87.7762 34.1908 87.9939 33.8149C88.2217 33.4292 88.3352 32.9692 88.3352 32.4351C88.3352 31.901 88.2217 31.4461 87.9939 31.0702C87.7762 30.6844 87.4893 30.3927 87.1333 30.1948C86.7772 29.9871 86.3914 29.8833 85.976 29.8833C85.5606 29.8833 85.17 29.9871 84.804 30.1948C84.4479 30.3927 84.1561 30.6844 83.9286 31.0702C83.711 31.4461 83.6022 31.901 83.6022 32.4351C83.6022 32.9692 83.711 33.4292 83.9286 33.8149C84.1561 34.1908 84.4479 34.4825 84.804 34.6902C85.17 34.8881 85.5606 34.987 85.976 34.987ZM94.8108 39.6604C94.1475 39.6604 93.5742 39.5516 93.0898 39.334C92.615 39.1263 92.2293 38.8543 91.9326 38.518C91.6358 38.1916 91.4229 37.8554 91.2946 37.5092L92.7782 36.886C92.9362 37.2816 93.1884 37.6031 93.5349 37.8504C93.891 38.1076 94.316 38.2361 94.8108 38.2361C95.5029 38.2361 96.0466 38.0284 96.4428 37.613C96.8478 37.1976 97.0511 36.6091 97.0511 35.8475V35.1205H96.9621C96.7247 35.4766 96.3931 35.7634 95.9681 35.981C95.5526 36.1887 95.0779 36.2926 94.5438 36.2926C93.9006 36.2926 93.3124 36.1294 92.7782 35.803C92.2441 35.4766 91.8139 35.0216 91.4875 34.438C91.1611 33.8446 90.9979 33.1522 90.9979 32.3609C90.9979 31.5598 91.1611 30.8674 91.4875 30.2838C91.8139 29.6904 92.2441 29.2305 92.7782 28.9041C93.3124 28.5777 93.9006 28.4145 94.5438 28.4145C95.0779 28.4145 95.5526 28.5233 95.9681 28.7409C96.3931 28.9584 96.7247 29.2453 96.9621 29.6014H97.0511V28.6518H98.5793V35.8178C98.5793 36.6388 98.4161 37.3361 98.0897 37.9097C97.7729 38.4834 97.333 38.9186 96.7692 39.2153C96.2054 39.5121 95.5526 39.6604 94.8108 39.6604ZM94.8257 34.8386C95.221 34.8386 95.5867 34.7446 95.9235 34.5567C96.2595 34.3589 96.5318 34.077 96.7395 33.711C96.9473 33.3352 97.0511 32.8852 97.0511 32.3609C97.0511 31.817 96.9473 31.3619 96.7395 30.996C96.5318 30.6201 96.2595 30.3382 95.9235 30.1503C95.5867 29.9624 95.221 29.8684 94.8257 29.8684C94.4294 29.8684 94.0585 29.9673 93.7129 30.1652C93.3761 30.3531 93.1046 30.6301 92.8969 30.996C92.6892 31.3619 92.5854 31.817 92.5854 32.3609C92.5854 32.895 92.6892 33.35 92.8969 33.7259C93.1046 34.0918 93.3761 34.3688 93.7129 34.5567C94.0585 34.7446 94.4294 34.8386 94.8257 34.8386ZM100.469 36.2184V25.5956H102.071V36.2184H100.469ZM107.344 36.4558C106.602 36.4558 105.94 36.2827 105.356 35.9365C104.773 35.5903 104.313 35.1155 103.976 34.5122C103.65 33.9089 103.487 33.2214 103.487 32.45C103.487 31.7279 103.645 31.0603 103.961 30.447C104.278 29.8338 104.718 29.3442 105.282 28.9782C105.856 28.6024 106.513 28.4145 107.255 28.4145C108.037 28.4145 108.699 28.5826 109.243 28.9189C109.797 29.2552 110.218 29.7151 110.504 30.2987C110.791 30.8823 110.934 31.54 110.934 32.2719C110.934 32.3807 110.93 32.4796 110.92 32.5686C110.92 32.6577 110.915 32.7269 110.905 32.7764H105.059C105.139 33.528 105.4 34.0918 105.846 34.4677C106.301 34.8436 106.815 35.0315 107.389 35.0315C107.903 35.0315 108.328 34.9178 108.664 34.6902C109.001 34.4529 109.268 34.1611 109.466 33.8149L110.786 34.4529C110.46 35.0463 110.015 35.5309 109.451 35.9068C108.887 36.2728 108.185 36.4558 107.344 36.4558ZM107.27 29.7794C106.736 29.7794 106.281 29.9426 105.905 30.269C105.53 30.5954 105.277 31.0306 105.148 31.5746H109.347C109.328 31.3174 109.243 31.0504 109.095 30.7734C108.946 30.4965 108.719 30.264 108.412 30.0761C108.116 29.8783 107.735 29.7794 107.27 29.7794ZM116.151 36.2184V25.5956H119.8C120.444 25.5956 121.028 25.7341 121.551 26.011C122.076 26.2879 122.491 26.6687 122.797 27.1534C123.114 27.638 123.272 28.2018 123.272 28.8447C123.272 29.4877 123.114 30.0563 122.797 30.5509C122.491 31.0355 122.076 31.4164 121.551 31.6933C121.028 31.9604 120.444 32.0939 119.8 32.0939H117.783V36.2184H116.151ZM119.845 27.1385H117.783V30.5509H119.845C120.231 30.5509 120.557 30.4717 120.824 30.3135C121.091 30.1453 121.295 29.9327 121.432 29.6756C121.581 29.4085 121.655 29.1316 121.655 28.8447C121.655 28.5579 121.581 28.2859 121.432 28.0287C121.295 27.7715 121.091 27.5589 120.824 27.3908C120.557 27.2226 120.231 27.1385 119.845 27.1385ZM127.614 36.4558C126.872 36.4558 126.21 36.2827 125.626 35.9365C125.042 35.5903 124.582 35.1155 124.246 34.5122C123.92 33.9089 123.757 33.2214 123.757 32.45C123.757 31.7279 123.915 31.0603 124.231 30.447C124.548 29.8338 124.988 29.3442 125.552 28.9782C126.125 28.6024 126.783 28.4145 127.525 28.4145C128.306 28.4145 128.969 28.5826 129.513 28.9189C130.067 29.2552 130.487 29.7151 130.774 30.2987C131.061 30.8823 131.204 31.54 131.204 32.2719C131.204 32.3807 131.199 32.4796 131.19 32.5686C131.19 32.6577 131.184 32.7269 131.175 32.7764H125.329C125.409 33.528 125.67 34.0918 126.116 34.4677C126.57 34.8436 127.085 35.0315 127.659 35.0315C128.173 35.0315 128.598 34.9178 128.934 34.6902C129.27 34.4529 129.538 34.1611 129.736 33.8149L131.056 34.4529C130.73 35.0463 130.285 35.5309 129.721 35.9068C129.157 36.2728 128.454 36.4558 127.614 36.4558ZM127.54 29.7794C127.006 29.7794 126.551 29.9426 126.175 30.269C125.799 30.5954 125.547 31.0306 125.418 31.5746H129.617C129.597 31.3174 129.513 31.0504 129.365 30.7734C129.216 30.4965 128.989 30.264 128.682 30.0761C128.386 29.8783 128.005 29.7794 127.54 29.7794ZM132.691 36.2184V28.6518H134.204V29.6904H134.293C134.511 29.3245 134.832 29.0228 135.257 28.7854C135.693 28.5381 136.168 28.4145 136.682 28.4145C137.612 28.4145 138.309 28.6914 138.774 29.2453C139.239 29.7992 139.471 30.5311 139.471 31.4411V36.2184H137.883V31.6488C137.883 31.0355 137.731 30.5904 137.423 30.3135C137.117 30.0267 136.717 29.8833 136.222 29.8833C135.836 29.8833 135.5 29.9921 135.213 30.2097C134.927 30.4174 134.699 30.6943 134.53 31.0405C134.372 31.3867 134.293 31.7576 134.293 32.1532V36.2184H132.691ZM135.554 27.1979L133.967 25.4027V25.2988H135.495L136.177 26.2187H136.326L137.023 25.2988H138.566V25.4027L136.964 27.1979H135.554ZM143.599 36.4558C143.054 36.4558 142.57 36.3519 142.145 36.1442C141.719 35.9266 141.388 35.6249 141.151 35.2392C140.914 34.8534 140.795 34.4133 140.795 33.9188C140.795 33.3846 140.933 32.9297 141.21 32.5538C141.496 32.1681 141.878 31.8763 142.353 31.6785C142.827 31.4806 143.351 31.3817 143.925 31.3817C144.4 31.3817 144.815 31.4262 145.172 31.5153C145.537 31.6043 145.814 31.6983 146.002 31.7972V31.3966C146.002 30.902 145.824 30.5064 145.468 30.2097C145.112 29.9129 144.652 29.7646 144.088 29.7646C143.703 29.7646 143.336 29.8536 142.991 30.0316C142.644 30.1998 142.367 30.4322 142.16 30.7289L141.062 29.8833C141.388 29.4283 141.819 29.0722 142.353 28.815C142.896 28.548 143.49 28.4145 144.133 28.4145C145.231 28.4145 146.077 28.6865 146.67 29.2305C147.263 29.7646 147.56 30.5163 147.56 31.4856V36.2184H146.002V35.2837H145.913C145.715 35.5903 145.419 35.8623 145.023 36.0997C144.627 36.3371 144.152 36.4558 143.599 36.4558ZM143.881 35.1502C144.296 35.1502 144.662 35.0513 144.979 34.8534C145.295 34.6556 145.542 34.3985 145.72 34.082C145.908 33.7556 146.002 33.4045 146.002 33.0286C145.775 32.9 145.508 32.7962 145.201 32.717C144.894 32.628 144.568 32.5835 144.222 32.5835C143.569 32.5835 143.104 32.717 142.827 32.9841C142.55 33.2413 142.412 33.5577 142.412 33.9336C142.412 34.2897 142.546 34.5814 142.813 34.8089C143.08 35.0365 143.436 35.1502 143.881 35.1502ZM148.923 36.2184V34.8831L153.137 30.0465H149.057V28.6518H155.095V29.9871L150.897 34.8238H155.214V36.2184H148.923ZM151.386 27.1979L149.799 25.4027V25.2988H151.327L152.009 26.2187H152.158L152.855 25.2988H154.398V25.4027L152.796 27.1979H151.386ZM160.025 36.4558C159.284 36.4558 158.62 36.2827 158.037 35.9365C157.453 35.5903 156.994 35.1155 156.658 34.5122C156.331 33.9089 156.168 33.2214 156.168 32.45C156.168 31.7279 156.326 31.0603 156.643 30.447C156.959 29.8338 157.399 29.3442 157.963 28.9782C158.536 28.6024 159.195 28.4145 159.936 28.4145C160.717 28.4145 161.38 28.5826 161.924 28.9189C162.478 29.2552 162.898 29.7151 163.186 30.2987C163.472 30.8823 163.616 31.54 163.616 32.2719C163.616 32.3807 163.611 32.4796 163.601 32.5686C163.601 32.6577 163.596 32.7269 163.586 32.7764H157.741C157.819 33.528 158.082 34.0918 158.527 34.4677C158.982 34.8436 159.496 35.0315 160.07 35.0315C160.584 35.0315 161.009 34.9178 161.346 34.6902C161.682 34.4529 161.949 34.1611 162.147 33.8149L163.467 34.4529C163.141 35.0463 162.696 35.5309 162.132 35.9068C161.568 36.2728 160.866 36.4558 160.025 36.4558ZM159.951 29.7794C159.417 29.7794 158.962 29.9426 158.586 30.269C158.21 30.5954 157.958 31.0306 157.83 31.5746H162.028C162.008 31.3174 161.924 31.0504 161.776 30.7734C161.628 30.4965 161.4 30.264 161.094 30.0761C160.797 29.8783 160.415 29.7794 159.951 29.7794ZM165.102 36.2184V28.6518H166.615V29.6904H166.704C166.922 29.3245 167.244 29.0228 167.669 28.7854C168.104 28.5381 168.579 28.4145 169.093 28.4145C170.022 28.4145 170.72 28.6914 171.185 29.2453C171.65 29.7992 171.882 30.5311 171.882 31.4411V36.2184H170.295V31.6488C170.295 31.0355 170.141 30.5904 169.835 30.3135C169.528 30.0267 169.128 29.8833 168.633 29.8833C168.247 29.8833 167.911 29.9921 167.624 30.2097C167.337 30.4174 167.11 30.6943 166.942 31.0405C166.784 31.3867 166.704 31.7576 166.704 32.1532V36.2184H165.102ZM173.708 36.2184V25.5956H175.31V31.8565L178.515 28.6518H180.503V28.7409L177.58 31.634L180.607 36.1294V36.2184H178.708L176.453 32.7467L175.31 33.8742V36.2184H173.708ZM183.833 36.4558C183.29 36.4558 182.804 36.3519 182.379 36.1442C181.954 35.9266 181.623 35.6249 181.385 35.2392C181.148 34.8534 181.029 34.4133 181.029 33.9188C181.029 33.3846 181.168 32.9297 181.445 32.5538C181.732 32.1681 182.112 31.8763 182.587 31.6785C183.062 31.4806 183.586 31.3817 184.16 31.3817C184.635 31.3817 185.05 31.4262 185.406 31.5153C185.772 31.6043 186.049 31.6983 186.237 31.7972V31.3966C186.237 30.902 186.059 30.5064 185.703 30.2097C185.347 29.9129 184.887 29.7646 184.323 29.7646C183.937 29.7646 183.572 29.8536 183.225 30.0316C182.879 30.1998 182.602 30.4322 182.394 30.7289L181.296 29.8833C181.623 29.4283 182.053 29.0722 182.587 28.815C183.131 28.548 183.724 28.4145 184.367 28.4145C185.465 28.4145 186.311 28.6865 186.904 29.2305C187.498 29.7646 187.795 30.5163 187.795 31.4856V36.2184H186.237V35.2837H186.148C185.95 35.5903 185.653 35.8623 185.258 36.0997C184.862 36.3371 184.388 36.4558 183.833 36.4558ZM184.115 35.1502C184.531 35.1502 184.896 35.0513 185.213 34.8534C185.53 34.6556 185.777 34.3985 185.955 34.082C186.143 33.7556 186.237 33.4045 186.237 33.0286C186.009 32.9 185.742 32.7962 185.436 32.717C185.129 32.628 184.803 32.5835 184.456 32.5835C183.804 32.5835 183.339 32.717 183.062 32.9841C182.785 33.2413 182.646 33.5577 182.646 33.9336C182.646 34.2897 182.78 34.5814 183.047 34.8089C183.314 35.0365 183.67 35.1502 184.115 35.1502Z" fill="white"/>
        <path d="M181.62 0.436523H24.5295C11.5156 0.436523 0.96582 10.9863 0.96582 24.0002C0.96582 37.014 11.5156 47.5638 24.5295 47.5638H181.62C194.634 47.5638 205.184 37.014 205.184 24.0002C205.184 10.9863 194.634 0.436523 181.62 0.436523Z" stroke="#747775"/>
    </g>
    <defs>
        <linearGradient id="paint0_linear_1170_11336" x1="33.0682" y1="29.712" x2="16.921" y2="48.6309" gradientUnits="userSpaceOnUse">
            <stop stop-color="#4285F4"/>
            <stop offset="1" stop-color="#1B74E8"/>
        </linearGradient>
        <clipPath id="clip0_1170_11336">
            <rect width="205.091" height="48" fill="white" transform="translate(0.529297)"/>
        </clipPath>
    </defs>
</svg>
