<svg width="1em" height="1em" viewBox="0 0 20 16" fill="none" xmlns="http://www.w3.org/2000/svg">
<g clip-path="url(#clip0)">
<path d="M0.276516 3.01562L6.3609 0C6.98902 0.86875 8.37965 1.475 10.0015 1.475C11.6234 1.475 13.014 0.86875 13.6422 0L19.7265 3.01562C19.9734 3.14062 20.0734 3.44062 19.9515 3.6875L18.164 7.26562C18.039 7.5125 17.739 7.6125 17.4922 7.49062L15.7234 6.625C15.3922 6.4625 15.0047 6.70312 15.0047 7.075V15C15.0047 15.5531 14.5578 16 14.0047 16H6.00465C5.45152 16 5.00465 15.5531 5.00465 15V7.07188C5.00465 6.70312 4.61715 6.45937 4.2859 6.62187L2.51714 7.4875C2.27027 7.6125 1.97027 7.5125 1.84527 7.2625L0.0546417 3.6875C-0.0703583 3.44062 0.0296402 3.1375 0.276516 3.01562Z" fill="#FFFFFF"/>
</g>
<defs>
<clipPath id="clip0">
<rect width="20" height="16" fill="white" transform="matrix(-1 0 0 1 20 0)"/>
</clipPath>
</defs>
</svg>
