<svg viewBox="0 0 26 14" fill="none" xmlns="http://www.w3.org/2000/svg"><path d="M.495.143a1.632 1.632 0 0 0-.352.352C.017.677 0 .737 0 .982c0 .169.027.334.069.418.081.162 12.172 12.282 12.44 12.47.156.109.221.127.468.127.177 0 .341-.027.426-.07.179-.089 12.306-12.196 12.472-12.451.106-.164.125-.236.125-.483 0-.258-.016-.314-.143-.498a1.632 1.632 0 0 0-.352-.352C25.319.015 25.266 0 24.997 0c-.204 0-.338.023-.418.072-.064.04-2.696 2.648-5.848 5.796L13 11.592 7.269 5.868C4.117 2.72 1.485.112 1.421.072 1.341.023 1.207 0 1.003 0 .734 0 .681.015.495.143" fill-rule="evenodd" fill="#000"/></svg>
