<svg width="1em" height="1em" viewBox="0 0 16 16" fill="none" xmlns="http://www.w3.org/2000/svg">
<path fill-rule="evenodd" clip-rule="evenodd" d="M0.950796 14.262C0.698629 14.0098 0.556964 13.6678 0.556964 13.3112C0.556964 12.9545 0.698629 12.6125 0.950796 12.3604L12.3604 0.950806C12.6125 0.69864 12.9545 0.556973 13.3111 0.556973C13.6678 0.556973 14.0098 0.69864 14.2619 0.950807C14.5141 1.20297 14.6558 1.54498 14.6558 1.9016C14.6558 2.25822 14.5141 2.60023 14.2619 2.8524L2.85239 14.262C2.60022 14.5141 2.25821 14.6558 1.90159 14.6558C1.54497 14.6558 1.20296 14.5141 0.950796 14.262Z" fill="#FFFFFF"/>
<path fill-rule="evenodd" clip-rule="evenodd" d="M0.950815 0.950796C1.20298 0.698629 1.54499 0.556964 1.90161 0.556964C2.25823 0.556964 2.60024 0.698629 2.85241 0.950796L14.262 12.3604C14.5141 12.6125 14.6558 12.9545 14.6558 13.3111C14.6558 13.6678 14.5141 14.0098 14.262 14.2619C14.0098 14.5141 13.6678 14.6558 13.3112 14.6558C12.9545 14.6558 12.6125 14.5141 12.3604 14.2619L0.950815 2.85239C0.698648 2.60022 0.556982 2.25821 0.556982 1.90159C0.556982 1.54497 0.698648 1.20296 0.950815 0.950796Z" fill="#FFFFFF"/>
</svg>
