<svg width="1em" height="1em" viewBox="0 0 20 18" fill="none" xmlns="http://www.w3.org/2000/svg">
<path d="M15.0007 6H12.0007V0H8.00071V6H5.00071L10.0007 11L15.0007 6ZM19.3387 12.532C19.1287 12.308 17.7277 10.809 17.3277 10.418C17.0474 10.1493 16.674 9.99951 16.2857 10H14.5287L17.5927 12.994H14.0487C14.0005 12.9931 13.953 13.0049 13.9109 13.0283C13.8687 13.0516 13.8335 13.0857 13.8087 13.127L12.9927 15H7.00871L6.19271 13.127C6.16778 13.0858 6.13251 13.0519 6.09041 13.0286C6.04831 13.0052 6.00084 12.9933 5.95271 12.994H2.40871L5.47171 10H3.71571C3.31871 10 2.93971 10.159 2.67371 10.418C2.27371 10.81 0.872713 12.309 0.662713 12.532C0.173713 13.053 -0.0952866 13.468 0.0327134 13.981L0.593713 17.055C0.721713 17.569 1.28471 17.991 1.84571 17.991H18.1577C18.7187 17.991 19.2817 17.569 19.4097 17.055L19.9707 13.981C20.0967 13.468 19.8287 13.053 19.3387 12.532Z" fill="white"/>
</svg>
