<svg width="25" height="25" viewBox="0 0 25 25" fill="none" xmlns="http://www.w3.org/2000/svg">
<path d="M11.3565 19.5479C15.4075 19.5479 18.6915 16.2639 18.6915 12.2129C18.6915 8.16192 15.4075 4.87793 11.3565 4.87793C7.30548 4.87793 4.02148 8.16192 4.02148 12.2129C4.02148 16.2639 7.30548 19.5479 11.3565 19.5479Z" stroke="currentColor" stroke-miterlimit="10"/>
<path d="M11.3564 4.87793H14.2664C16.2118 4.87793 18.0775 5.65072 19.4531 7.0263C20.8287 8.40188 21.6014 10.2676 21.6014 12.2129C21.6014 14.1583 20.8287 16.024 19.4531 17.3996C18.0775 18.7751 16.2118 19.5479 14.2664 19.5479H11.3564" stroke="currentColor" stroke-miterlimit="10"/>
<path d="M13.6216 9.30293C13.2252 9.03112 12.7571 8.8832 12.2766 8.87793C10.7316 8.87793 9.47656 10.3779 9.47656 12.2129C9.47656 14.0479 10.7316 15.5479 12.2766 15.5479C12.7571 15.5427 13.2252 15.3947 13.6216 15.1229" stroke="currentColor" stroke-miterlimit="10"/>
<path d="M7.91211 11.2676H12.6021" stroke="currentColor" stroke-miterlimit="10"/>
<path d="M7.91211 13.1582H12.2371" stroke="currentColor" stroke-miterlimit="10"/>
</svg>
