<svg width="1em" height="1em" viewBox="0 0 24 24" fill="none" xmlns="http://www.w3.org/2000/svg">
<path d="M21.2466 6.66666H17.5466L18.2132 3.44666C18.2296 3.35178 18.2252 3.25448 18.2004 3.16145C18.1756 3.06842 18.1309 2.98187 18.0695 2.90775C18.008 2.83363 17.9313 2.7737 17.8444 2.73208C17.7576 2.69046 17.6628 2.66814 17.5666 2.66666H16.2332C16.0791 2.66289 15.9285 2.71265 15.8069 2.80746C15.6854 2.90227 15.6004 3.03627 15.5666 3.18666L14.8866 6.66666H11.2866L11.9532 3.44666C11.9694 3.35393 11.9657 3.25883 11.9424 3.16762C11.9192 3.07641 11.8769 2.99116 11.8183 2.91748C11.7597 2.8438 11.6862 2.78335 11.6026 2.74012C11.519 2.69689 11.4272 2.67185 11.3332 2.66666H9.99988C9.84578 2.66289 9.69513 2.71265 9.57358 2.80746C9.45202 2.90227 9.36709 3.03627 9.33322 3.18666L8.66655 6.66666H4.66655C4.51059 6.66351 4.35846 6.71516 4.23665 6.81261C4.11483 6.91006 4.03105 7.04714 3.99988 7.19999L3.72655 8.53332C3.70653 8.63131 3.70881 8.73254 3.73322 8.82952C3.75763 8.92651 3.80355 9.01676 3.86757 9.09358C3.9316 9.17041 4.01208 9.23185 4.10308 9.27335C4.19407 9.31485 4.29323 9.33535 4.39322 9.33332H8.09322L6.99988 14.6667H2.99988C2.84392 14.6635 2.69179 14.7152 2.56998 14.8126C2.44817 14.9101 2.36438 15.0471 2.33322 15.2L2.05988 16.5333C2.03986 16.6313 2.04214 16.7325 2.06655 16.8295C2.09096 16.9265 2.13688 17.0168 2.20091 17.0936C2.26493 17.1704 2.34542 17.2319 2.43641 17.2734C2.5274 17.3149 2.62656 17.3354 2.72655 17.3333H6.45322L5.78655 20.5533C5.76989 20.6499 5.7747 20.7489 5.80066 20.8434C5.82661 20.9378 5.87307 21.0254 5.93672 21.0999C6.00037 21.1743 6.07965 21.2339 6.16892 21.2742C6.25819 21.3146 6.35526 21.3348 6.45322 21.3333H7.78655C7.93494 21.3295 8.07782 21.2763 8.19255 21.1821C8.30727 21.0879 8.38728 20.9581 8.41988 20.8133L9.11322 17.3333H12.7132L12.0466 20.5533C12.0304 20.6461 12.0341 20.7412 12.0573 20.8324C12.0806 20.9236 12.1229 21.0088 12.1815 21.0825C12.24 21.1562 12.3135 21.2166 12.3971 21.2599C12.4808 21.3031 12.5726 21.3281 12.6666 21.3333H13.9999C14.154 21.3371 14.3046 21.2873 14.4262 21.1925C14.5477 21.0977 14.6327 20.9637 14.6666 20.8133L15.3666 17.3333H19.3666C19.5225 17.3365 19.6746 17.2848 19.7965 17.1874C19.9183 17.0899 20.0021 16.9528 20.0332 16.8L20.2999 15.4667C20.3199 15.3687 20.3176 15.2674 20.2932 15.1705C20.2688 15.0735 20.2229 14.9832 20.1589 14.9064C20.0948 14.8296 20.0144 14.7681 19.9234 14.7266C19.8324 14.6851 19.7332 14.6646 19.6332 14.6667H15.9132L16.9999 9.33332H20.9999C21.1558 9.33647 21.308 9.28482 21.4298 9.18737C21.5516 9.08992 21.6354 8.95284 21.6666 8.79999L21.9399 7.46666C21.9605 7.36639 21.9578 7.26271 21.932 7.16366C21.9061 7.06461 21.8578 6.97284 21.7907 6.89548C21.7237 6.81812 21.6397 6.75723 21.5453 6.71755C21.451 6.67787 21.3487 6.66046 21.2466 6.66666ZM13.2466 14.6667H9.64655L10.7399 9.33332H14.3399L13.2466 14.6667Z" fill="#ffffff"/>
</svg>
