<svg width="1em" height="1em" viewBox="0 0 19 19" fill="none" xmlns="http://www.w3.org/2000/svg">
<path d="M9.5 0.25C8.26886 0.25 7.04977 0.482792 5.91234 0.935084C4.77492 1.38738 3.74142 2.05031 2.87087 2.88604C2.00032 3.72177 1.30977 4.71392 0.838629 5.80585C0.367492 6.89778 0.125 8.0681 0.125 9.25C0.125 10.4319 0.367492 11.6022 0.838629 12.6942C1.30977 13.7861 2.00032 14.7782 2.87087 15.614C3.74142 16.4497 4.77492 17.1126 5.91234 17.5649C7.04977 18.0172 8.26886 18.25 9.5 18.25C11.9864 18.25 14.371 17.3018 16.1291 15.614C17.8873 13.9261 18.875 11.6369 18.875 9.25C18.875 6.86305 17.8873 4.57387 16.1291 2.88604C14.371 1.19821 11.9864 0.25 9.5 0.25ZM10.6719 5.5C10.6719 5.79817 10.5485 6.08413 10.3289 6.29496C10.1092 6.5058 9.81137 6.62425 9.50078 6.62425C9.19019 6.62425 8.89232 6.5058 8.67269 6.29496C8.45307 6.08413 8.32969 5.79817 8.32969 5.5C8.32969 5.20203 8.45299 4.91626 8.67246 4.70557C8.89194 4.49487 9.18961 4.3765 9.5 4.3765C9.81039 4.3765 10.1081 4.49487 10.3275 4.70557C10.547 4.91626 10.6703 5.20203 10.6703 5.5H10.6719ZM9.5 7.75C9.7072 7.75 9.90592 7.82902 10.0524 7.96967C10.1989 8.11032 10.2812 8.30109 10.2812 8.5V13C10.2812 13.1989 10.1989 13.3897 10.0524 13.5303C9.90592 13.671 9.7072 13.75 9.5 13.75C9.2928 13.75 9.09409 13.671 8.94757 13.5303C8.80106 13.3897 8.71875 13.1989 8.71875 13V8.5C8.71875 8.30109 8.80106 8.11032 8.94757 7.96967C9.09409 7.82902 9.2928 7.75 9.5 7.75Z" fill="white"/>
</svg>
