<svg width="22" height="22" viewBox="0 0 22 22" fill="none" xmlns="http://www.w3.org/2000/svg">
<path d="M11.1883 5.61078C10.1223 5.61078 9.08026 5.92693 8.1939 6.51924C7.30754 7.11155 6.61671 7.95343 6.20876 8.93841C5.80081 9.92339 5.69407 11.0072 5.90204 12.0529C6.11001 13.0985 6.62335 14.059 7.37714 14.8129C8.13092 15.5668 9.09131 16.0802 10.1368 16.2881C11.1824 16.4961 12.2661 16.3894 13.251 15.9814C14.2358 15.5734 15.0776 14.8825 15.6699 13.996C16.2621 13.1096 16.5782 12.0674 16.5782 11.0013C16.5793 10.2931 16.4406 9.59162 16.1701 8.93714C15.8996 8.28265 15.5027 7.68798 15.002 7.18721C14.5013 6.68645 13.9067 6.28943 13.2522 6.01892C12.5978 5.7484 11.8965 5.60971 11.1883 5.61078ZM11.1883 14.5054C10.4954 14.5054 9.81798 14.2998 9.24179 13.9148C8.66561 13.5298 8.21653 12.9825 7.95135 12.3422C7.68616 11.7019 7.61677 10.9974 7.75197 10.3176C7.88716 9.63791 8.22085 9.01354 8.71085 8.52348C9.20086 8.03342 9.82516 7.69969 10.5048 7.56449C11.1845 7.42928 11.8889 7.49867 12.5292 7.76389C13.1694 8.02911 13.7166 8.47823 14.1016 9.05448C14.4866 9.63073 14.6921 10.3082 14.6921 11.0013C14.6902 11.93 14.3205 12.8202 13.6638 13.477C13.0071 14.1337 12.117 14.5035 11.1883 14.5054ZM18.0556 5.3947C18.0545 5.64282 17.9799 5.88505 17.8413 6.09085C17.7027 6.29666 17.5064 6.45684 17.2769 6.55121C17.0474 6.64558 16.7952 6.6699 16.5519 6.62113C16.3087 6.57236 16.0853 6.45266 15.91 6.27713C15.7346 6.1016 15.6151 5.87809 15.5666 5.63476C15.5181 5.39143 15.5426 5.13918 15.6372 4.90979C15.7317 4.6804 15.8921 4.48413 16.098 4.34573C16.3039 4.20733 16.5462 4.13298 16.7943 4.13205C16.9598 4.13128 17.1238 4.16328 17.2769 4.22619C17.43 4.28911 17.5691 4.38171 17.6862 4.49864C17.8034 4.61558 17.8962 4.75455 17.9594 4.90753C18.0226 5.06052 18.0549 5.2245 18.0544 5.39003L18.0556 5.3947ZM21.6259 6.67019C21.6604 5.03588 21.0504 3.45366 19.9278 2.26554C18.7377 1.14389 17.1562 0.532262 15.5213 0.561379C13.7858 0.463264 8.58393 0.463264 6.84842 0.561379C5.21555 0.529044 3.63483 1.13692 2.44426 2.25503C1.32279 3.44441 0.712649 5.02635 0.744965 6.66084C0.646861 8.39654 0.646861 13.599 0.744965 15.3347C0.710194 16.9694 1.32021 18.5521 2.44309 19.7405C3.63393 20.8587 5.21406 21.468 6.84726 21.4388C8.58276 21.5369 13.7846 21.5369 15.5201 21.4388C17.1542 21.4733 18.7363 20.8632 19.9243 19.7405C21.0431 18.55 21.6525 16.9694 21.6224 15.3358C21.7205 13.6001 21.7205 8.40238 21.6224 6.66668L21.6259 6.67019ZM19.3835 17.2023C19.2038 17.6544 18.933 18.0647 18.5881 18.4077C18.2431 18.7507 17.8313 19.0191 17.3782 19.1962C15.9943 19.7451 12.7066 19.6178 11.1813 19.6178C9.65606 19.6178 6.36374 19.7346 4.98445 19.1962C4.53224 19.0177 4.12152 18.7483 3.77778 18.4045C3.43403 18.0607 3.16459 17.6499 2.98617 17.1977C2.43726 15.8135 2.56456 12.5255 2.56456 11.0001C2.56456 9.47464 2.44777 6.18195 2.98617 4.80251C3.16537 4.3499 3.43577 3.93902 3.78055 3.59541C4.12533 3.2518 4.53712 2.98281 4.99029 2.80517C6.37426 2.25619 9.6619 2.38351 11.1872 2.38351C12.7125 2.38351 16.0048 2.26671 17.3841 2.80517C17.8363 2.98361 18.247 3.25308 18.5907 3.59686C18.9345 3.94065 19.2039 4.35142 19.3824 4.80367C19.9313 6.18779 19.804 9.4758 19.804 11.0013C19.804 12.5267 19.9301 15.8194 19.3812 17.1977L19.3835 17.2023Z" fill="white"/>
</svg>
