<svg width="32" height="32" viewBox="0 0 32 32" fill="none" xmlns="http://www.w3.org/2000/svg">
<path d="M17.0004 13.5898V7.28484C17.0004 7.02942 16.9501 6.7765 16.8523 6.54052C16.7546 6.30455 16.6113 6.09013 16.4307 5.90952C16.2501 5.72891 16.0357 5.58564 15.7997 5.4879C15.5637 5.39015 15.3108 5.33984 15.0554 5.33984H7.20037C6.68452 5.33984 6.18981 5.54476 5.82505 5.90952C5.46029 6.27428 5.25537 6.769 5.25537 7.28484V23.1098C5.25537 23.6257 5.46029 24.1204 5.82505 24.4852C6.18981 24.8499 6.68452 25.0548 7.20037 25.0548H15.0404C15.2971 25.0568 15.5516 25.008 15.7893 24.9111C16.027 24.8143 16.2432 24.6713 16.4254 24.4905C16.6076 24.3097 16.7522 24.0946 16.8509 23.8576C16.9496 23.6207 17.0004 23.3665 17.0004 23.1098V21.9548" stroke="white" stroke-miterlimit="10"/>
<path d="M16.9998 21.9544L21.2148 23.4994C21.8746 23.7443 22.5908 23.7949 23.2785 23.6451C23.9662 23.4954 24.5966 23.1515 25.0948 22.6544L27.5948 20.1844C28.0418 19.7377 28.3964 19.2073 28.6384 18.6235C28.8804 18.0396 29.0049 17.4139 29.0049 16.7819C29.0049 16.1499 28.8804 15.5241 28.6384 14.9403C28.3964 14.3565 28.0418 13.8261 27.5948 13.3794V13.3794L23.8798 9.66939L23.4748 9.25939C23.2229 9.01641 22.8984 8.86243 22.5509 8.82091C22.2034 8.77939 21.8518 8.8526 21.5498 9.02939C21.3733 9.15409 21.2259 9.31544 21.1176 9.50238C21.0093 9.68932 20.9427 9.89745 20.9223 10.1125C20.9019 10.3276 20.9282 10.5446 20.9994 10.7485C21.0705 10.9525 21.185 11.1387 21.3348 11.2944C21.0519 11.0361 20.6809 10.8958 20.2978 10.9023C19.9148 10.9088 19.5487 11.0616 19.2748 11.3294C19.133 11.4591 19.0193 11.6165 18.9408 11.7918C18.8622 11.9672 18.8205 12.1568 18.8182 12.349C18.8158 12.5411 18.8529 12.7317 18.9271 12.9089C19.0014 13.0862 19.1112 13.2463 19.2498 13.3794V13.3794C19.0694 13.2051 18.8481 13.0789 18.6063 13.0122C18.3645 12.9455 18.1098 12.9406 17.8655 12.9978C17.6213 13.055 17.3953 13.1725 17.2083 13.3396C17.0212 13.5068 16.879 13.7181 16.7948 13.9544C16.7057 14.2127 16.6923 14.4912 16.7561 14.7569C16.8198 15.0226 16.9582 15.2646 17.1548 15.4544V15.4544L12.4998 10.8444C12.2198 10.5725 11.845 10.4205 11.4548 10.4205C11.0646 10.4205 10.6897 10.5725 10.4098 10.8444V10.8444C10.1394 11.1241 9.98828 11.4979 9.98828 11.8869C9.98828 12.2759 10.1394 12.6497 10.4098 12.9294L14.5198 17.0394L14.9298 19.7944C15.0007 20.274 15.2074 20.7233 15.5255 21.0892C15.8435 21.4552 16.2597 21.7224 16.7248 21.8594L16.9748 21.9544" stroke="white" stroke-miterlimit="10"/>
<path d="M14.5298 17.04L17.5448 20.055" stroke="white" stroke-miterlimit="10"/>
<path d="M11.3599 9.15535V6.86035" stroke="white" stroke-miterlimit="10"/>
<path d="M8.65486 11.9297H6.35986" stroke="white" stroke-miterlimit="10"/>
<path d="M9.28516 9.96973L7.66016 8.34473" stroke="white" stroke-miterlimit="10"/>
<path d="M13.4351 9.96973L15.0551 8.34473" stroke="white" stroke-miterlimit="10"/>
<path d="M9.495 13.9795L7.875 15.6045" stroke="white" stroke-miterlimit="10"/>
<path d="M12.2702 22.8955H9.97021" stroke="white" stroke-miterlimit="10"/>
</svg>
