<svg width="1em" height="1em" viewBox="0 0 22 16" fill="none" xmlns="http://www.w3.org/2000/svg">
<path d="M21.2143 13.4999V4.07132C21.2143 4.07132 11.681 10.7237 10.7539 11.0689C9.84244 10.7394 0.261963 4.07132 0.261963 4.07132V13.4999C0.261963 14.8094 0.539582 15.0713 1.83339 15.0713H19.6429C20.9676 15.0713 21.2143 14.8414 21.2143 13.4999ZM21.1992 2.2228C21.1992 1.26894 20.921 0.928467 19.6429 0.928467H1.83339C0.51863 0.928467 0.261963 1.33704 0.261963 2.29037L0.277677 2.43704C0.277677 2.43704 9.74239 8.95323 10.7539 9.30942C11.8224 8.89561 21.2143 2.29037 21.2143 2.29037L21.1992 2.2228Z" fill="#FFFFFF"/>
</svg>
