<svg width="20" height="16" viewBox="0 0 20 16" fill="none" xmlns="http://www.w3.org/2000/svg">
<path fill-rule="evenodd" clip-rule="evenodd" d="M0.899994 1.50001C0.899994 1.15523 1.03696 0.824571 1.28076 0.580774C1.52455 0.336976 1.85521 0.200012 2.19999 0.200012H17.8C18.1448 0.200012 18.4754 0.336976 18.7192 0.580774C18.963 0.824571 19.1 1.15523 19.1 1.50001C19.1 1.84479 18.963 2.17545 18.7192 2.41925C18.4754 2.66305 18.1448 2.80001 17.8 2.80001H2.19999C1.85521 2.80001 1.52455 2.66305 1.28076 2.41925C1.03696 2.17545 0.899994 1.84479 0.899994 1.50001Z" fill="#07038C"/>
<path fill-rule="evenodd" clip-rule="evenodd" d="M0.899994 8.00001C0.899994 7.65523 1.03696 7.32457 1.28076 7.08077C1.52455 6.83698 1.85521 6.70001 2.19999 6.70001H17.8C18.1448 6.70001 18.4754 6.83698 18.7192 7.08077C18.963 7.32457 19.1 7.65523 19.1 8.00001C19.1 8.34479 18.963 8.67545 18.7192 8.91925C18.4754 9.16305 18.1448 9.30001 17.8 9.30001H2.19999C1.85521 9.30001 1.52455 9.16305 1.28076 8.91925C1.03696 8.67545 0.899994 8.34479 0.899994 8.00001Z" fill="#07038C"/>
<path fill-rule="evenodd" clip-rule="evenodd" d="M0.899994 14.5C0.899994 14.1552 1.03696 13.8246 1.28076 13.5808C1.52455 13.337 1.85521 13.2 2.19999 13.2H17.8C18.1448 13.2 18.4754 13.337 18.7192 13.5808C18.963 13.8246 19.1 14.1552 19.1 14.5C19.1 14.8448 18.963 15.1755 18.7192 15.4193C18.4754 15.6631 18.1448 15.8 17.8 15.8H2.19999C1.85521 15.8 1.52455 15.6631 1.28076 15.4193C1.03696 15.1755 0.899994 14.8448 0.899994 14.5Z" fill="#07038C"/>
</svg>
