<svg width="1em" height="1em" viewBox="0 0 16 17" fill="none" xmlns="http://www.w3.org/2000/svg">
<path d="M8.11191 0.250743C3.61288 0.18998 -0.0600231 3.86271 0.000743315 8.36152C0.0607405 12.6761 3.57404 16.1892 7.88884 16.2492C12.3886 16.3108 16.0608 12.638 15.9992 8.13923C15.94 3.82387 12.4267 0.310738 8.11191 0.250743ZM11.6541 5.14413L8.49112 12.3173C8.3069 12.72 7.69193 12.5865 7.69193 12.1419V8.71149C7.69193 8.67069 7.67572 8.63156 7.64687 8.60271C7.61802 8.57386 7.57889 8.55765 7.53809 8.55765H4.10825C3.66519 8.55765 3.53135 7.94733 3.93248 7.76273L11.1064 4.59649C11.183 4.56109 11.2687 4.55006 11.3518 4.56487C11.4349 4.57969 11.5115 4.61964 11.5712 4.67933C11.6309 4.73903 11.6709 4.8156 11.6857 4.89871C11.7005 4.98183 11.6894 5.06748 11.6541 5.14413Z" fill="#FFFFFF"/>
</svg>
