<svg width="32" height="32" viewBox="0 0 32 32" fill="none" xmlns="http://www.w3.org/2000/svg">
    <path d="M6.67456 11.5942C6.67456 11.5942 6.53089 10.0429 7.14729 9.3764C7.82072 8.64822 8.9624 8.76322 8.9624 8.76322L27.3277 8.76316C27.3277 8.76316 27.9491 8.76316 28.4883 9.24034C28.9986 9.69201 28.9986 10.2483 28.9986 10.2483V21.2943C28.9986 21.2943 29.0461 22.2227 28.6166 22.6942C28.1161 23.2436 27.2534 23.2436 27.2534 23.2436H8.24622C8.24622 23.2436 7.67296 23.2436 7.10934 22.7421C6.67456 22.3553 6.67456 21.8089 6.67456 21.8089L6.67456 20.5981" stroke="currentColor" stroke-linecap="round"/>
    <path d="M7.24316 9.30547L16.5015 17.3006C16.5015 17.3006 17.1501 17.8135 17.9032 17.8135C18.6563 17.8135 19.1292 17.3006 19.1292 17.3006L28.519 9.28223" stroke="currentColor"/>
    <path d="M7.13782 22.7548L15.0375 15.9629" stroke="currentColor"/>
    <path d="M20.5931 15.8745L28.4996 22.7941" stroke="currentColor"/>
    <path d="M8.52648 14.5702H4.84131" stroke="currentColor" stroke-linecap="round"/>
    <path d="M3 17.5175H8.52764" stroke="currentColor" stroke-linecap="round"/>
</svg>
