<svg width="1em" height="1em" viewBox="0 0 18 20" fill="none" xmlns="http://www.w3.org/2000/svg">
<path d="M16.0714 1.25H1.92857C0.863839 1.25 0 2.08984 0 3.125V16.875C0 17.9102 0.863839 18.75 1.92857 18.75H16.0714C17.1362 18.75 18 17.9102 18 16.875V3.125C18 2.08984 17.1362 1.25 16.0714 1.25ZM9.64286 12.5H7.71429V14.375C7.71429 14.7188 7.425 15 7.07143 15H5.78571C5.43214 15 5.14286 14.7188 5.14286 14.375V5.625C5.14286 5.28125 5.43214 5 5.78571 5H9.64286C11.7683 5 13.5 6.68359 13.5 8.75C13.5 10.8164 11.7683 12.5 9.64286 12.5ZM9.64286 7.5H7.71429V10H9.64286C10.35 10 10.9286 9.4375 10.9286 8.75C10.9286 8.0625 10.35 7.5 9.64286 7.5Z" fill="#FFFFFF"/>
</svg>
