<svg width="1em" height="1em" viewBox="0 0 21 20" fill="none" xmlns="http://www.w3.org/2000/svg">
<path d="M6.5881 18.6086L16.5883 8.60837L11.8384 3.85845L1.83818 13.8587C1.70051 13.9965 1.60271 14.1691 1.55516 14.358L0.446777 20L6.08771 18.8916C6.27711 18.8443 6.45036 18.7463 6.5881 18.6086ZM19.8166 5.38006C20.2201 4.97646 20.4468 4.42914 20.4468 3.85845C20.4468 3.28776 20.2201 2.74044 19.8166 2.33684L18.1099 0.630137C17.7063 0.226661 17.159 0 16.5883 0C16.0176 0 15.4703 0.226661 15.0667 0.630137L13.36 2.33684L18.1099 7.08676L19.8166 5.38006Z" fill="#FFFFFF"/>
</svg>
