<svg width="1em" height="1em" viewBox="0 0 18 18" fill="none" xmlns="http://www.w3.org/2000/svg">
<g clip-path="url(#clip0)">
<path d="M4.92686 8.79944C4.42724 8.79944 4.02075 9.20593 4.02075 9.70555V12.252H5.833V9.70555C5.833 9.20593 5.42651 8.79944 4.92686 8.79944Z" fill="#FFFFFF"/>
<path d="M9.11221 5.52026H0.741455V17.9997H1.79609V16.7013H8.05757V17.9997H9.11221V5.52026ZM8.05757 15.6467H1.79609V14.4767H8.05757V15.6467ZM8.05757 13.422H1.79609V12.2521H2.96607V9.70559C2.96607 8.62441 3.84567 7.74484 4.92681 7.74484C6.00796 7.74484 6.88759 8.62444 6.88759 9.70559V12.2521H8.05757V13.422Z" fill="#FFFFFF"/>
<path d="M16.2645 15.0099C15.9889 15.0099 15.7386 14.8472 15.6266 14.5953L13.7946 10.4742C13.1539 9.0332 11.7376 8.09186 10.167 8.05273V11.1332C10.5349 11.2706 10.8415 11.551 11.0067 11.9226L12.8839 16.1452C13.3843 17.2708 14.5035 17.9981 15.7353 17.9981H18V15.0098H16.2645V15.0099Z" fill="#FFFFFF"/>
<path d="M9.85382 4.46585V3.225L4.92691 0.000488281L0 3.225V4.46585H9.85382Z" fill="#FFFFFF"/>
</g>
<defs>
<clipPath id="clip0">
<rect width="1em" height="1em" fill="#FFFFFF"/>
</clipPath>
</defs>
</svg>
