<svg width="24" height="24" viewBox="0 0 24 24" fill="none" xmlns="http://www.w3.org/2000/svg">
<path d="M12.7495 2.74805C12.7495 2.4719 12.5257 2.24805 12.2495 2.24805L11.7504 2.24805C11.4743 2.24805 11.2504 2.4719 11.2504 2.74805L11.2504 11.2506L2.74786 11.2506C2.47172 11.2506 2.24786 11.4745 2.24786 11.7506V12.2497C2.24786 12.5258 2.47172 12.7497 2.74786 12.7497L11.2504 12.7497L11.2504 21.2523C11.2504 21.5284 11.4743 21.7523 11.7504 21.7523H12.2495C12.5257 21.7523 12.7495 21.5284 12.7495 21.2523V12.7497L21.2521 12.7497C21.5282 12.7497 21.7521 12.5258 21.7521 12.2497V11.7506C21.7521 11.4745 21.5282 11.2506 21.2521 11.2506L12.7495 11.2506V2.74805Z" fill="#0A07F5"/>
</svg>
