<svg width="24" height="24" viewBox="0 0 24 24" fill="none" xmlns="http://www.w3.org/2000/svg">
<path d="M12.0001 0.830078C5.84008 0.830078 0.830078 5.84008 0.830078 12.0001C0.830078 18.1601 5.84008 23.1701 12.0001 23.1701C18.1601 23.1701 23.1701 18.1601 23.1701 12.0001C23.1701 5.84008 18.1601 0.830078 12.0001 0.830078ZM7.00008 18.0701C7.00008 16.5301 8.23008 15.2701 9.76008 15.2101C10.4101 15.6301 11.1801 15.8801 12.0001 15.8801C12.8201 15.8801 13.5901 15.6301 14.2401 15.2201C15.7701 15.2801 17.0001 16.5401 17.0001 18.0801V20.2701C15.5401 21.1601 13.8301 21.6801 12.0001 21.6801C10.1701 21.6801 8.46008 21.1601 7.00008 20.2701V18.0701ZM14.6901 11.6901C14.6901 13.1701 13.4901 14.3701 12.0101 14.3701C10.5301 14.3701 9.33008 13.1701 9.33008 11.6901V9.00008C9.33008 7.73008 10.3701 6.69008 11.6401 6.69008H12.3901C13.6601 6.69008 14.7001 7.73008 14.7001 9.00008V11.6901H14.6901ZM18.5101 19.1401V18.0701C18.5101 16.1501 17.2501 14.5301 15.5201 13.9401C15.9401 13.2901 16.1901 12.5201 16.1901 11.6901V8.83008C16.1001 6.81008 14.4301 5.19008 12.3901 5.19008H11.6401C9.60008 5.19008 7.92008 6.81008 7.84008 8.83008V11.6901C7.84008 12.5201 8.09008 13.2901 8.51008 13.9401C6.78008 14.5201 5.52008 16.1401 5.52008 18.0701V19.1401C3.58008 17.3701 2.35008 14.8301 2.35008 12.0001C2.33008 6.67008 6.67008 2.33008 12.0001 2.33008C17.3301 2.33008 21.6701 6.67008 21.6701 12.0001C21.6701 14.8301 20.4401 17.3701 18.5001 19.1401H18.5101Z" fill="#333333"/>
</svg>
