<svg width="1em" height="1em" viewBox="0 0 17 17" fill="none" xmlns="http://www.w3.org/2000/svg">
<path d="M3.71577 12.424C1.45377 9.992 1.49377 6.18 3.84377 3.813C4.80577 2.844 6.00777 2.266 7.25777 2.077L7.18877 0C5.43377 0.213 3.73677 0.996 2.39177 2.351C-0.757234 5.521 -0.795234 10.64 2.26877 13.882L0.527766 15.634L6.03777 15.935L6.02277 10.101L3.71577 12.424ZM10.3628 0.465L10.3778 6.299L12.6848 3.977C14.9468 6.411 14.9068 10.223 12.5568 12.588C11.5958 13.557 10.3928 14.135 9.14277 14.324L9.21177 16.4C10.9668 16.187 12.6638 15.404 14.0098 14.05C17.1578 10.878 17.1958 5.759 14.1318 2.519L15.8728 0.765L10.3628 0.465Z" fill="white"/>
</svg>
