<svg width="1em" height="1em" viewBox="0 0 21 18" fill="none" xmlns="http://www.w3.org/2000/svg">
<path d="M19.2544 10.5932L20.9779 3.28075C21.1023 2.75277 20.6861 2.25 20.1246 2.25H5.80446L5.47028 0.674648C5.38701 0.281988 5.0287 0 4.61304 0H0.875C0.391745 0 0 0.377754 0 0.84375V1.40625C0 1.87225 0.391745 2.25 0.875 2.25H3.42282L5.98394 14.3239C5.37122 14.6637 4.95833 15.3008 4.95833 16.0312C4.95833 17.1186 5.87242 18 7 18C8.12758 18 9.04167 17.1186 9.04167 16.0312C9.04167 15.4802 8.80662 14.9824 8.42829 14.625H16.0717C15.6934 14.9824 15.4583 15.4802 15.4583 16.0312C15.4583 17.1186 16.3724 18 17.5 18C18.6276 18 19.5417 17.1186 19.5417 16.0312C19.5417 15.2518 19.0718 14.5782 18.3903 14.2592L18.5915 13.4057C18.7159 12.8778 18.2997 12.375 17.7383 12.375H7.95218L7.71356 11.25H18.4011C18.8097 11.25 19.1638 10.9774 19.2544 10.5932Z" fill="white"/>
</svg>
