<svg width="1em" height="1em" viewBox="0 0 20 20" fill="none" xmlns="http://www.w3.org/2000/svg">
<path d="M11.875 12.5C11.7514 12.5 11.6305 12.5367 11.5278 12.6053C11.425 12.674 11.3449 12.7716 11.2976 12.8858C11.2503 13 11.2379 13.1257 11.262 13.2469C11.2861 13.3682 11.3456 13.4795 11.4331 13.5669C11.5205 13.6543 11.6318 13.7139 11.7531 13.738C11.8743 13.7621 12 13.7497 12.1142 13.7024C12.2284 13.6551 12.326 13.575 12.3947 13.4722C12.4633 13.3694 12.5 13.2486 12.5 13.125C12.5 12.9592 12.4342 12.8003 12.3169 12.6831C12.1997 12.5658 12.0408 12.5 11.875 12.5ZM13.125 8.75C13.0014 8.75 12.8805 8.78665 12.7778 8.85533C12.675 8.924 12.5949 9.02162 12.5476 9.13582C12.5003 9.25002 12.4879 9.37569 12.512 9.49693C12.5361 9.61817 12.5956 9.72953 12.6831 9.81694C12.7705 9.90435 12.8818 9.96387 13.0031 9.98799C13.1243 10.0121 13.25 9.99973 13.3642 9.95242C13.4784 9.90512 13.576 9.82501 13.6447 9.72223C13.7133 9.61945 13.75 9.49861 13.75 9.375C13.75 9.20924 13.6842 9.05027 13.5669 8.93305C13.4497 8.81584 13.2908 8.75 13.125 8.75ZM14.375 11.25C14.4986 11.25 14.6195 11.2133 14.7222 11.1447C14.825 11.076 14.9051 10.9784 14.9524 10.8642C14.9997 10.75 15.0121 10.6243 14.988 10.5031C14.9639 10.3818 14.9044 10.2705 14.8169 10.1831C14.7295 10.0956 14.6182 10.0361 14.4969 10.012C14.3757 9.98789 14.25 10.0003 14.1358 10.0476C14.0216 10.0949 13.924 10.175 13.8553 10.2778C13.7867 10.3805 13.75 10.5014 13.75 10.625C13.75 10.7908 13.8158 10.9497 13.9331 11.0669C14.0503 11.1841 14.2092 11.25 14.375 11.25ZM13.125 12.5C13.2486 12.5 13.3695 12.4633 13.4722 12.3947C13.575 12.326 13.6551 12.2284 13.7024 12.1142C13.7497 12 13.7621 11.8743 13.738 11.7531C13.7139 11.6318 13.6544 11.5205 13.5669 11.4331C13.4795 11.3456 13.3682 11.2861 13.2469 11.262C13.1257 11.2379 13 11.2503 12.8858 11.2976C12.7716 11.3449 12.674 11.425 12.6053 11.5278C12.5367 11.6305 12.5 11.7514 12.5 11.875C12.5 12.0408 12.5658 12.1997 12.6831 12.3169C12.8003 12.4341 12.9592 12.5 13.125 12.5ZM11.875 10C11.7514 10 11.6305 10.0367 11.5278 10.1053C11.425 10.174 11.3449 10.2716 11.2976 10.3858C11.2503 10.5 11.2379 10.6257 11.262 10.7469C11.2861 10.8682 11.3456 10.9795 11.4331 11.0669C11.5205 11.1543 11.6318 11.2139 11.7531 11.238C11.8743 11.2621 12 11.2497 12.1142 11.2024C12.2284 11.1551 12.326 11.075 12.3947 10.9722C12.4633 10.8694 12.5 10.7486 12.5 10.625C12.5 10.4592 12.4342 10.3003 12.3169 10.1831C12.1997 10.0658 12.0408 10 11.875 10ZM16.875 8.75C16.9986 8.75 17.1195 8.71334 17.2222 8.64466C17.325 8.57599 17.4051 8.47838 17.4524 8.36417C17.4997 8.24997 17.5121 8.1243 17.488 8.00307C17.4639 7.88183 17.4044 7.77046 17.3169 7.68305C17.2295 7.59565 17.1182 7.53612 16.9969 7.51201C16.8757 7.48789 16.75 7.50027 16.6358 7.54757C16.5216 7.59488 16.424 7.67498 16.3553 7.77776C16.2867 7.88055 16.25 8.00138 16.25 8.125C16.25 8.29076 16.3158 8.44973 16.4331 8.56694C16.5503 8.68415 16.7092 8.75 16.875 8.75ZM15 9.375C15 9.49861 15.0367 9.61945 15.1053 9.72223C15.174 9.82501 15.2716 9.90512 15.3858 9.95242C15.5 9.99973 15.6257 10.0121 15.7469 9.98799C15.8682 9.96387 15.9795 9.90435 16.0669 9.81694C16.1544 9.72953 16.2139 9.61817 16.238 9.49693C16.2621 9.37569 16.2497 9.25002 16.2024 9.13582C16.1551 9.02162 16.075 8.924 15.9722 8.85533C15.8695 8.78665 15.7486 8.75 15.625 8.75C15.4592 8.75 15.3003 8.81584 15.1831 8.93305C15.0658 9.05027 15 9.20924 15 9.375ZM14.375 7.5C14.2514 7.5 14.1305 7.53665 14.0278 7.60533C13.925 7.674 13.8449 7.77162 13.7976 7.88582C13.7503 8.00002 13.7379 8.12569 13.762 8.24693C13.7861 8.36817 13.8456 8.47953 13.9331 8.56694C14.0205 8.65435 14.1318 8.71387 14.2531 8.73799C14.3743 8.7621 14.5 8.74973 14.6142 8.70242C14.7284 8.65512 14.826 8.57501 14.8947 8.47223C14.9633 8.36945 15 8.24861 15 8.125C15 7.95924 14.9342 7.80027 14.8169 7.68305C14.6997 7.56584 14.5408 7.5 14.375 7.5ZM18.125 8.75C18.0014 8.75 17.8805 8.78665 17.7778 8.85533C17.675 8.924 17.5949 9.02162 17.5476 9.13582C17.5003 9.25002 17.4879 9.37569 17.512 9.49693C17.5361 9.61817 17.5956 9.72953 17.6831 9.81694C17.7705 9.90435 17.8818 9.96387 18.0031 9.98799C18.1243 10.0121 18.25 9.99973 18.3642 9.95242C18.4784 9.90512 18.576 9.82501 18.6447 9.72223C18.7133 9.61945 18.75 9.49861 18.75 9.375C18.75 9.20924 18.6842 9.05027 18.5669 8.93305C18.4497 8.81584 18.2908 8.75 18.125 8.75ZM19.375 7.5C19.2514 7.5 19.1305 7.53665 19.0278 7.60533C18.925 7.674 18.8449 7.77162 18.7976 7.88582C18.7503 8.00002 18.7379 8.12569 18.762 8.24693C18.7861 8.36817 18.8456 8.47953 18.9331 8.56694C19.0205 8.65435 19.1318 8.71387 19.2531 8.73799C19.3743 8.7621 19.5 8.74973 19.6142 8.70242C19.7284 8.65512 19.826 8.57501 19.8947 8.47223C19.9633 8.36945 20 8.24861 20 8.125C20 7.95924 19.9342 7.80027 19.8169 7.68305C19.6997 7.56584 19.5408 7.5 19.375 7.5ZM16.875 10C16.7514 10 16.6305 10.0367 16.5278 10.1053C16.425 10.174 16.3449 10.2716 16.2976 10.3858C16.2503 10.5 16.2379 10.6257 16.262 10.7469C16.2861 10.8682 16.3456 10.9795 16.4331 11.0669C16.5205 11.1543 16.6318 11.2139 16.7531 11.238C16.8743 11.2621 17 11.2497 17.1142 11.2024C17.2284 11.1551 17.326 11.075 17.3947 10.9722C17.4633 10.8694 17.5 10.7486 17.5 10.625C17.5 10.4592 17.4342 10.3003 17.3169 10.1831C17.1997 10.0658 17.0408 10 16.875 10ZM15.625 11.25C15.5014 11.25 15.3805 11.2867 15.2778 11.3553C15.175 11.424 15.0949 11.5216 15.0476 11.6358C15.0003 11.75 14.9879 11.8757 15.012 11.9969C15.0361 12.1182 15.0956 12.2295 15.1831 12.3169C15.2705 12.4043 15.3818 12.4639 15.5031 12.488C15.6243 12.5121 15.75 12.4997 15.8642 12.4524C15.9784 12.4051 16.076 12.325 16.1447 12.2222C16.2133 12.1194 16.25 11.9986 16.25 11.875C16.25 11.7092 16.1842 11.5503 16.0669 11.4331C15.9497 11.3158 15.7908 11.25 15.625 11.25ZM13.125 13.75C13.0014 13.75 12.8805 13.7867 12.7778 13.8553C12.675 13.924 12.5949 14.0216 12.5476 14.1358C12.5003 14.25 12.4879 14.3757 12.512 14.4969C12.5361 14.6182 12.5956 14.7295 12.6831 14.8169C12.7705 14.9043 12.8818 14.9639 13.0031 14.988C13.1243 15.0121 13.25 14.9997 13.3642 14.9524C13.4784 14.9051 13.576 14.825 13.6447 14.7222C13.7133 14.6194 13.75 14.4986 13.75 14.375C13.75 14.2092 13.6842 14.0503 13.5669 13.9331C13.4497 13.8158 13.2908 13.75 13.125 13.75ZM11.875 15C11.7514 15 11.6305 15.0367 11.5278 15.1053C11.425 15.174 11.3449 15.2716 11.2976 15.3858C11.2503 15.5 11.2379 15.6257 11.262 15.7469C11.2861 15.8682 11.3456 15.9795 11.4331 16.0669C11.5205 16.1543 11.6318 16.2139 11.7531 16.238C11.8743 16.2621 12 16.2497 12.1142 16.2024C12.2284 16.1551 12.326 16.075 12.3947 15.9722C12.4633 15.8694 12.5 15.7486 12.5 15.625C12.5 15.4592 12.4342 15.3003 12.3169 15.1831C12.1997 15.0658 12.0408 15 11.875 15ZM14.375 12.5C14.2514 12.5 14.1305 12.5367 14.0278 12.6053C13.925 12.674 13.8449 12.7716 13.7976 12.8858C13.7503 13 13.7379 13.1257 13.762 13.2469C13.7861 13.3682 13.8456 13.4795 13.9331 13.5669C14.0205 13.6543 14.1318 13.7139 14.2531 13.738C14.3743 13.7621 14.5 13.7497 14.6142 13.7024C14.7284 13.6551 14.826 13.575 14.8947 13.4722C14.9633 13.3694 15 13.2486 15 13.125C15 12.9592 14.9342 12.8003 14.8169 12.6831C14.6997 12.5658 14.5408 12.5 14.375 12.5ZM15.2207 3.9707L14.7793 3.5289C14.7213 3.47085 14.6524 3.4248 14.5765 3.39338C14.5007 3.36196 14.4194 3.34579 14.3373 3.34579C14.2552 3.34579 14.1739 3.36196 14.0981 3.39338C14.0223 3.4248 13.9534 3.47085 13.8953 3.5289L13.6738 3.75C12.8612 2.94904 11.766 2.50002 10.625 2.5C9.87344 2.5 9.17656 2.70703 8.55859 3.04101L8.16797 2.65039C7.28148 1.75976 6.07847 1.25628 4.82188 1.25C2.16758 1.23047 0 3.62929 0 6.2832V18.125C0 18.2908 0.065848 18.4497 0.183058 18.5669C0.300269 18.6841 0.45924 18.75 0.625 18.75H1.875C2.04076 18.75 2.19973 18.6841 2.31694 18.5669C2.43415 18.4497 2.5 18.2908 2.5 18.125V6.1875C2.5 5.00976 3.32031 3.91406 4.49219 3.76836C4.83938 3.72287 5.19239 3.75795 5.52385 3.87087C5.85531 3.98379 6.1563 4.17153 6.40352 4.41953L6.79414 4.81015C6.45703 5.42656 6.25 6.12343 6.25 6.875C6.25019 8.01598 6.69918 9.1111 7.5 9.92382L7.27891 10.1453C7.16178 10.2625 7.09599 10.4214 7.09599 10.5871C7.09599 10.7528 7.16178 10.9117 7.27891 11.0289L7.72031 11.4707C7.77835 11.5288 7.84726 11.5748 7.92309 11.6062C7.99893 11.6376 8.08022 11.6538 8.1623 11.6538C8.24439 11.6538 8.32568 11.6376 8.40152 11.6062C8.47735 11.5748 8.54626 11.5288 8.6043 11.4707L15.2207 4.85468C15.2788 4.79665 15.3248 4.72774 15.3562 4.6519C15.3876 4.57606 15.4038 4.49478 15.4038 4.41269C15.4038 4.3306 15.3876 4.24932 15.3562 4.17348C15.3248 4.09764 15.2788 4.02874 15.2207 3.9707Z" fill="#FFFFFF"/>
</svg>
