<?xml version="1.0" encoding="UTF-8"?>
<svg id="Layer_1" xmlns="http://www.w3.org/2000/svg" viewBox="0 0 1696 794">
  <defs>
    <style>
      .cls-1 {
        fill: #003968;
      }
    </style>
  </defs>
  <path class="cls-1" d="M14.25,737.29v56.71h1666.41v-56.71H14.25ZM14.25,0v56.71h1666.41V0H14.25ZM1155.62,437.69h-26.8v232.25h-103.22V124.06h154.83c103.22,0,149.87,57.56,149.87,144.91v7.94c0,69.48-16.87,89.33-64.51,119.1,52.6,25.8,57.56,80.39,57.56,126.05v52.6c0,14.89,0,81.39,4.96,95.28h-99.25c-7.94-34.74-8.93-97.26-8.93-98.26v-48.63c0-57.56-5.96-85.36-64.51-85.36ZM1165.55,207.43h-36.72v146.89h28.78c62.53,0,69.48-36.72,69.48-72.45v-7.94c0-47.64-19.85-66.5-61.53-66.5ZM1560.56,215.37l-182.62,385.09v69.48h290.8l11.91-90.32h-181.63l173.69-375.16v-80.39h-277.9v91.31h165.75ZM538.29,669.94h-104.21V215.37h-102.23v-91.31h309.66v91.31h-103.22v454.56ZM159.15,597.49c29.77,0,48.63-27.79,48.63-61.53,0-20.84-5.96-51.61-32.75-72.45-18.86-18.86-77.41-50.62-99.25-68.48-49.62-39.7-63.52-68.48-63.52-129.03,0-82.38,39.7-149.87,144.91-149.87,118.11,0,143.91,75.43,143.91,147.88v12.9h-101.24v-12.9c0-29.78-8.93-65.51-43.67-65.51-30.77,0-40.69,21.83-40.69,54.59,0,23.82,5.96,39.7,24.81,56.57,8.93,7.94,85.35,52.6,101.24,65.51,47.64,37.71,70.47,79.4,70.47,147.88,0,112.15-74.44,156.81-155.82,156.81-114.14,0-154.83-68.48-154.83-154.83v-12.9h103.22v14.89c0,33.75,12.9,70.47,54.59,70.47ZM963.08,651.08v-387.07c0-88.33-41.68-147.88-141.93-147.88-89.32,0-149.87,36.72-149.87,149.87v7.94h103.22v-9.93c0-40.69,12.9-62.53,41.69-61.53,38.71.99,40.69,41.68,40.69,69.47v66.5h-12.9c-130.02,0-191.55,59.55-190.56,171.7v9.92c0,85.35,36.72,159.79,116.12,159.79,38.71,0,69.47-14.89,90.32-50.62l7.94,40.69h96.27l-.99-18.86ZM839.01,418.84h20.84v64.51c0,38.71-7.94,104.21-56.57,104.21-38.71,0-48.63-31.76-48.63-70.47v-9.92c-.99-53.6,15.88-88.33,84.36-88.33Z"/>
</svg>