<svg width="2em" height="1em" viewBox="0 0 38 17" fill="none" xmlns="http://www.w3.org/2000/svg">
<path d="M27.3456 7.9039C29.2826 8.13064 31.0364 6.74403 31.2631 4.80677C31.4896 2.87006 30.1031 1.11609 28.1659 0.889515C26.2291 0.662782 24.4751 2.04939 24.249 3.98649C24.0218 5.92359 25.4087 7.67733 27.3456 7.9039Z" fill="#07038C"/>
<path d="M11.9664 5.03274L17.2189 3.98383L18.3484 5.80037L14.2562 9.69166C14.8881 9.85134 15.4949 10.089 16.0591 10.4C16.3296 10.5491 16.5832 10.7214 16.8283 10.8878C17.2233 11.156 17.5949 11.4141 17.9632 11.5153C18.2544 11.5952 18.6361 11.5998 18.6604 11.6012C19.1792 11.5967 19.6363 11.4524 20.1028 11.1482C21.3162 10.3571 22.8055 9.53749 24.6526 9.45635C24.7889 9.45037 24.9267 9.4473 25.0621 9.4473C25.6546 9.4473 26.234 9.50553 26.7881 9.61839C26.408 9.01154 19.6359 0.805011 19.6359 0.805011L19.4574 0.5915C19.0204 0.0720843 18.289 -0.145204 17.6147 0.101912L11.2371 2.44109C10.6223 2.66593 10.2459 3.31127 10.3779 3.97313C10.524 4.70425 11.2352 5.17865 11.9664 5.03274Z" fill="#07038C"/>
<path d="M35.1831 13.1922C34.3137 13.582 33.6657 13.7409 32.946 13.7409C32.6625 13.7409 32.3693 13.7156 32.0493 13.6632C30.9838 13.4732 30.2244 12.8579 29.4898 12.2629C29.0381 11.8969 28.6114 11.5512 28.1178 11.2967C27.2244 10.8335 26.15 10.5889 25.0098 10.5889C24.8916 10.5889 24.7712 10.5916 24.6522 10.5969C23.0933 10.6653 21.8292 11.3589 20.6952 12.0982C20.0299 12.5321 19.2408 12.7403 18.5246 12.7403C18.3087 12.7403 17.8691 12.693 17.5838 12.6107C17.0363 12.4528 16.5668 12.1338 16.1128 11.8256C15.8796 11.6671 15.6594 11.5176 15.4368 11.3949C14.4838 10.8695 13.3834 10.5918 12.2545 10.5918H12.2316C10.6512 10.597 9.22183 11.0817 8.09832 11.9932C6.53385 13.2628 5.5014 13.6196 5.20706 13.6699C5.20706 13.6699 4.96018 13.7344 4.43006 13.7344C3.41453 13.7344 2.56583 13.4017 1.71399 13.0313C1.11556 12.771 0.551603 12.6217 0 12.5781C0.106952 12.6399 0.20934 12.7045 0.308659 12.7726C0.741033 13.074 1.09691 13.4405 1.44091 13.7948C1.62506 13.9843 1.79891 14.1634 1.98362 14.3334C2.70678 14.9986 4.19932 15.785 5.91716 15.785C6.78884 15.785 7.63226 15.5955 8.42374 15.2215C8.65661 15.1115 8.88334 14.9804 9.12329 14.8419C9.52143 14.6121 9.935 14.3804 10.3933 14.2261C10.9715 14.0313 11.8692 14.0958 11.8692 14.0958C12.7999 14.1553 13.4969 14.5951 14.0001 14.9715C15.5331 16.1183 16.9795 16.6595 18.552 16.6748L18.6321 16.6752C19.7141 16.6752 20.704 16.4667 21.5745 16.0555C21.9799 15.8638 22.3659 15.5819 22.7748 15.2832C23.5426 14.7223 24.3367 14.1422 25.3593 14.1021C25.4201 14.0996 25.482 14.0984 25.5448 14.0984C26.1047 14.0984 26.9478 14.1957 27.7846 14.6591C28.7919 15.2189 30.0105 15.7909 31.4164 15.7909C31.6208 15.7909 31.8293 15.7789 32.0362 15.7556C33.3304 15.6091 34.4243 15.1319 35.2875 14.3374C35.4726 14.1671 35.6468 13.9874 35.8313 13.7973C36.2248 13.392 36.6315 12.9727 37.1454 12.6545C37.1839 12.6305 37.2226 12.6073 37.2618 12.5847C36.6407 12.6399 35.9828 12.8335 35.1831 13.1922Z" fill="#07038C"/>
</svg>
