<svg width="24" height="24" viewBox="0 0 24 24" fill="none" xmlns="http://www.w3.org/2000/svg">
    <path fill-rule="evenodd" clip-rule="evenodd" d="M12.0001 7.60998C11.3801 7.60998 10.8701 7.09998 10.8701 6.47998C10.8701 5.85998 11.3801 5.34998 12.0001 5.34998C12.6201 5.34998 13.1301 5.85998 13.1301 6.47998C13.1301 7.09998 12.6201 7.60998 12.0001 7.60998ZM12.0001 13.13C11.3801 13.13 10.8701 12.62 10.8701 12C10.8701 11.38 11.3801 10.87 12.0001 10.87C12.6201 10.87 13.1301 11.38 13.1301 12C13.1301 12.62 12.6201 13.13 12.0001 13.13ZM10.8701 17.52C10.8701 18.14 11.3801 18.65 12.0001 18.65C12.6201 18.65 13.1301 18.14 13.1301 17.52C13.1301 16.9 12.6201 16.39 12.0001 16.39C11.3801 16.39 10.8701 16.9 10.8701 17.52Z" fill="currentColor"/>
</svg>
