<svg width="25" height="24" viewBox="0 0 25 24" fill="none" xmlns="http://www.w3.org/2000/svg">
    <g clip-path="url(#clip0_998_1185)">
        <path fill-rule="evenodd" clip-rule="evenodd" d="M2.02969 21.6097H22.9597C23.4497 21.6097 23.8897 21.3497 24.1297 20.9297C24.3797 20.5097 24.3697 19.9997 24.1297 19.5797L13.6597 1.77973C13.1697 0.949727 11.8297 0.949727 11.3397 1.77973L0.859687 19.5797C0.619687 19.9897 0.619687 20.5097 0.859687 20.9297C1.09969 21.3597 1.53969 21.6097 2.02969 21.6097ZM22.6997 20.1097H2.29969L12.4997 2.76973L22.6997 20.1097ZM13.2497 7.69972H11.7497V14.4797H13.2497V7.69972ZM12.4997 18.4597C11.8697 18.4597 11.3597 17.9497 11.3597 17.3197C11.3597 16.6897 11.8697 16.1797 12.4997 16.1797C13.1297 16.1797 13.6397 16.6897 13.6397 17.3197C13.6397 17.9497 13.1297 18.4597 12.4997 18.4597Z" fill="currentColor"/>
    </g>
    <defs>
        <clipPath id="clip0_998_1185">
            <rect width="24" height="24" fill="white" transform="translate(0.5)"/>
        </clipPath>
    </defs>
</svg>
