<svg width="1em" height="1em" viewBox="0 0 32 25" fill="none" xmlns="http://www.w3.org/2000/svg">
<path d="M6.49351 7C8.73076 7 9.91351 5.69275 10.7764 4.73725C11.5523 3.87975 11.9338 3.5 12.8221 3.5C13.7103 3.5 14.0919 3.87975 14.8678 4.73725C15.7307 5.69275 16.9134 7 19.1523 7C21.3927 7 22.577 5.69275 23.4431 4.73725C24.2205 3.87975 24.6021 3.5 25.4935 3.5C26.3849 3.5 26.7665 3.87975 27.5439 4.73725C28.4084 5.69275 29.5928 7 31.8332 7V3.5C30.9418 3.5 30.5602 3.12025 29.7828 2.26275C28.9183 1.30725 27.7339 0 25.4935 0C23.2531 0 22.0703 1.30725 21.2043 2.261C20.4268 3.12025 20.0468 3.5 19.1523 3.5C18.2624 3.5 17.8824 3.12025 17.1066 2.26275C16.2437 1.30725 15.0609 0 12.8221 0C10.5833 0 9.40051 1.30725 8.53759 2.26275C7.76176 3.12025 7.38176 3.5 6.49351 3.5C5.60526 3.5 5.22526 3.12025 4.44942 2.26275C3.5865 1.30725 2.40375 0 0.166504 0V3.5C1.05475 3.5 1.43475 3.87975 2.21059 4.73725C3.0735 5.69275 4.25625 7 6.49351 7ZM6.49351 15.75C8.73076 15.75 9.91351 14.4427 10.7764 13.4872C11.5523 12.6297 11.9338 12.25 12.8221 12.25C13.7103 12.25 14.0919 12.6297 14.8678 13.4872C15.7307 14.4427 16.9134 15.75 19.1523 15.75C21.3927 15.75 22.577 14.4427 23.4431 13.4872C24.2205 12.6297 24.6021 12.25 25.4935 12.25C26.3849 12.25 26.7665 12.6297 27.5439 13.4872C28.4084 14.4427 29.5928 15.75 31.8332 15.75V12.25C30.9418 12.25 30.5602 11.8703 29.7828 11.0128C28.9183 10.0573 27.7339 8.75 25.4935 8.75C23.2531 8.75 22.0703 10.0573 21.2043 11.011C20.4268 11.8702 20.0468 12.25 19.1523 12.25C18.2624 12.25 17.8824 11.8703 17.1066 11.0128C16.2437 10.0573 15.0609 8.75 12.8221 8.75C10.5833 8.75 9.40051 10.0573 8.53759 11.0128C7.76176 11.8703 7.38176 12.25 6.49351 12.25C5.60526 12.25 5.22526 11.8703 4.44942 11.0128C3.5865 10.0573 2.40375 8.75 0.166504 8.75V12.25C1.05475 12.25 1.43475 12.6297 2.21059 13.4872C3.0735 14.4427 4.25625 15.75 6.49351 15.75ZM6.49351 24.5C8.73076 24.5 9.91351 23.1928 10.7764 22.2373C11.5523 21.3798 11.9338 21 12.8221 21C13.7103 21 14.0919 21.3798 14.8678 22.2373C15.7307 23.1928 16.9134 24.5 19.1523 24.5C21.3927 24.5 22.577 23.1928 23.4431 22.2373C24.2205 21.3798 24.6021 21 25.4935 21C26.3849 21 26.7665 21.3798 27.5439 22.2373C28.4084 23.1928 29.5928 24.5 31.8332 24.5V21C30.9418 21 30.5602 20.6202 29.7828 19.7627C28.9183 18.8072 27.7339 17.5 25.4935 17.5C23.2531 17.5 22.0703 18.8072 21.2043 19.761C20.4268 20.6202 20.0468 21 19.1523 21C18.2624 21 17.8824 20.6202 17.1066 19.7627C16.2437 18.8072 15.0609 17.5 12.8221 17.5C10.5833 17.5 9.40051 18.8072 8.53759 19.7627C7.76176 20.6202 7.38176 21 6.49351 21C5.60526 21 5.22526 20.6202 4.44942 19.7627C3.5865 18.8072 2.40375 17.5 0.166504 17.5V21C1.05475 21 1.43475 21.3798 2.21059 22.2373C3.0735 23.1928 4.25625 24.5 6.49351 24.5Z" fill="#FFFFFF"/>
</svg>
