<svg width="25" height="17" viewBox="0 0 25 17" fill="none" xmlns="http://www.w3.org/2000/svg">
<path d="M24.2627 3.00611C24.1267 2.52077 23.8617 2.08137 23.4958 1.73462C23.1197 1.37721 22.6587 1.12154 22.1563 0.991755C20.2761 0.496176 12.7433 0.496176 12.7433 0.496176C9.60293 0.460446 6.46336 0.617592 3.34229 0.966726C2.83989 1.1061 2.37972 1.36748 2.00272 1.72762C1.63229 2.08403 1.36397 2.52355 1.22381 3.00511C0.887108 4.81897 0.723515 6.66073 0.735237 8.50554C0.723223 10.3487 0.886414 12.1898 1.22381 14.006C1.36097 14.4855 1.62828 14.923 1.99972 15.2765C2.37115 15.6299 2.83369 15.8852 3.34229 16.0203C5.24751 16.5149 12.7433 16.5149 12.7433 16.5149C15.8876 16.5507 19.0312 16.3935 22.1563 16.0444C22.6587 15.9146 23.1197 15.6589 23.4958 15.3015C23.8663 14.9481 24.1296 14.5086 24.2617 14.03C24.6072 12.2168 24.7752 10.3743 24.7633 8.52857C24.7893 6.675 24.6215 4.8238 24.2627 3.00511V3.00611ZM10.3485 11.9335V5.07853L16.6158 8.50654L10.3485 11.9335Z" fill="white"/>
</svg>
