<svg width="518" height="621" viewBox="0 0 518 621" fill="none" xmlns="http://www.w3.org/2000/svg">
<path d="M377.084 79.4484C376.758 79.4488 376.5 79.1674 376.523 78.8429C376.633 77.4058 377.148 76.25 378.052 75.3952C379.166 74.3449 380.584 74.0724 381.393 74.002C381.734 73.9734 382.021 74.2499 382.001 74.5912L381.945 75.5761C381.931 75.8471 381.722 76.0708 381.452 76.1008C380.938 76.155 380.098 76.3371 379.482 76.9274C378.99 77.3968 378.703 78.071 378.625 78.935C378.599 79.223 378.358 79.4432 378.068 79.4443L377.085 79.4446L377.084 79.4484Z" fill="white"/>
<path d="M469.363 50.841L486.68 55.0418L431.771 281.406C431.698 281.706 431.394 281.891 431.094 281.818L205.274 227.041C204.974 226.968 204.789 226.665 204.862 226.364L208.93 209.591C236.991 93.913 353.684 22.7807 469.363 50.841Z" fill="#FFA41B"/>
<path d="M231.044 233.324L230.113 233.031C229.817 232.939 229.652 232.621 229.744 232.325C248.093 174.109 281.872 128.435 327.442 100.219C371.935 72.6718 425.311 63.0107 481.84 72.2724C482.146 72.3228 482.355 72.6119 482.304 72.9179L482.146 73.8819C482.096 74.1879 481.807 74.3924 481.505 74.3429C366.046 55.4323 268.106 117.63 231.746 232.957C231.654 233.253 231.34 233.416 231.044 233.324Z" fill="white"/>
<path d="M335.868 129.368C335.534 129.367 335.262 129.078 335.31 128.748C335.431 127.938 335.789 127.233 336.36 126.684C337.427 125.662 338.967 125.415 339.827 125.361C340.159 125.338 340.435 125.612 340.421 125.946L340.355 127.446L340.399 126.398L340.378 126.926C340.365 127.21 340.15 127.44 339.866 127.463C339.245 127.515 338.329 127.698 337.801 128.203C337.589 128.406 337.459 128.649 337.394 128.947C337.341 129.201 337.108 129.371 336.85 129.372L335.856 129.369L335.868 129.368Z" fill="white"/>
<path d="M397.723 161.425C397.397 161.425 397.135 161.143 397.162 160.819C397.274 159.49 397.754 158.413 398.595 157.619C399.621 156.651 400.927 156.383 401.695 156.314C402.037 156.282 402.323 156.562 402.303 156.907L402.218 158.39L402.277 157.343L402.248 157.888C402.233 158.163 402.025 158.383 401.754 158.417C401.287 158.475 400.561 158.645 400.024 159.155C399.594 159.567 399.339 160.158 399.259 160.914C399.229 161.201 398.993 161.422 398.702 161.423L397.719 161.424L397.723 161.425Z" fill="white"/>
<path d="M327.564 207.792C327.238 207.793 326.976 207.51 327.003 207.187C327.115 205.857 327.595 204.781 328.436 203.986C329.462 203.018 330.768 202.75 331.536 202.682C331.877 202.653 332.164 202.93 332.145 203.271L332.093 204.257C332.079 204.528 331.87 204.752 331.6 204.782C331.132 204.839 330.407 205.009 329.87 205.519C329.439 205.932 329.185 206.523 329.105 207.279C329.075 207.566 328.838 207.787 328.548 207.788L327.565 207.788L327.564 207.792Z" fill="white"/>
<path d="M399.801 252.407C399.901 252.356 400.119 252.131 400.12 251.781L398.836 251.78C398.351 251.777 398.076 251.19 398.417 250.847C398.417 250.847 398.419 250.839 398.423 250.84C398.951 250.32 400.052 250.158 401.051 250.125C401.368 250.115 401.63 250.377 401.625 250.694L401.609 251.677C401.605 251.974 401.367 252.215 401.065 252.229C400.498 252.254 399.96 252.327 399.796 252.41L399.801 252.407Z" fill="white"/>
<path d="M450.188 125.248C449.862 125.249 449.6 124.966 449.627 124.643C449.738 123.314 450.218 122.237 451.058 121.446C452.085 120.478 453.391 120.21 454.155 120.141C454.497 120.109 454.783 120.389 454.763 120.734L454.678 122.217L454.737 121.169L454.708 121.715C454.693 121.99 454.485 122.21 454.214 122.243C453.747 122.301 453.021 122.471 452.484 122.981C452.054 123.394 451.795 123.984 451.719 124.741C451.689 125.028 451.453 125.249 451.162 125.25L450.179 125.25L450.188 125.248Z" fill="white"/>
<path d="M161.052 595.066C148.122 598.76 134.596 591.245 130.902 578.314L106.699 493.593C103.005 480.662 110.52 467.137 123.451 463.443C136.381 459.749 149.907 467.263 153.601 480.194L177.804 564.916C181.498 577.846 173.983 591.372 161.052 595.066ZM123.873 464.92C111.757 468.381 104.715 481.056 108.176 493.171L132.38 577.892C135.841 590.008 148.515 597.05 160.63 593.589C172.746 590.128 179.788 577.453 176.327 565.338L152.124 480.616C148.663 468.501 135.988 461.459 123.873 464.92Z" fill="#EF3C03"/>
<path d="M228.466 492.135L51.327 542.74L24.0325 447.197C11.1671 402.163 37.2831 355.153 82.3204 342.287L96.2643 338.304C141.299 325.438 188.308 351.554 201.174 396.592L228.469 492.135L228.466 492.135Z" fill="#EF3C03"/>
<path d="M224.737 479.081C215.626 481.683 210.212 480.191 204.974 478.748C199.758 477.311 194.829 475.952 186.224 478.41C177.618 480.869 174.151 484.627 170.481 488.602C166.796 492.594 162.987 496.721 153.877 499.324C144.766 501.927 139.351 500.435 134.114 498.991C128.898 497.554 123.969 496.195 115.366 498.653C106.764 501.11 103.296 504.868 99.6264 508.843C95.9419 512.836 92.133 516.963 83.0251 519.565C73.9172 522.166 68.503 520.674 63.2656 519.231C58.0494 517.794 53.1206 516.435 44.5179 518.893L44.0039 517.094C53.1118 514.492 58.5289 515.983 63.7633 517.427C68.9796 518.864 73.9084 520.223 82.5111 517.765C91.1138 515.308 94.581 511.55 98.2511 507.575C101.936 503.583 105.744 499.456 114.852 496.854C123.96 494.252 129.377 495.743 134.612 497.187C139.828 498.624 144.757 499.983 153.363 497.525C161.968 495.066 165.435 491.309 169.105 487.333C172.79 483.341 176.599 479.214 185.71 476.611C194.821 474.009 200.235 475.501 205.472 476.944C210.688 478.381 215.617 479.74 224.223 477.282L224.737 479.081Z" fill="white"/>
<path d="M426.5 561.659C425.224 561.659 423.955 561.637 422.689 561.596C342.834 558.899 305.667 460.833 362.165 404.335L426.5 340L490.835 404.335C547.333 460.833 510.166 558.899 430.311 561.596C429.045 561.641 427.776 561.659 426.5 561.659Z" fill="#000AF5"/>
<path d="M392.345 535.001C370.97 513.625 360.291 490.435 360.606 466.069C361.13 425.792 392.041 395.987 392.353 395.69L393.024 396.395C392.716 396.688 362.091 426.23 361.579 466.091C361.267 490.179 371.849 513.131 393.032 534.31L392.341 535.001L392.345 535.001Z" fill="white"/>
</svg>
