<svg width="516" height="407" viewBox="0 0 516 407" fill="none" xmlns="http://www.w3.org/2000/svg">
<path d="M102.429 172.99H68.5C62.8061 173.004 57.3491 175.271 53.322 179.296C49.2948 183.321 47.0252 188.777 47.0091 194.471C47.0132 196.781 47.3932 199.075 48.1343 201.263H21.5242C15.9066 201.385 10.5602 203.702 6.63041 207.718C2.70062 211.734 0.5 217.13 0.5 222.749C0.5 228.368 2.70062 233.763 6.63041 237.779C10.5602 241.795 15.9066 244.113 21.5242 244.235H76.1434C81.8365 244.216 87.2909 241.945 91.3155 237.919C95.3402 233.892 97.6081 228.437 97.6242 222.744C97.6201 220.434 97.2401 218.14 96.499 215.952H102.429C108.121 215.936 113.576 213.667 117.601 209.642C121.626 205.617 123.894 200.163 123.91 194.471C123.894 188.779 121.626 183.324 117.601 179.3C113.576 175.275 108.121 173.006 102.429 172.99Z" fill="#7CCDF1"/>
<path d="M457.029 17.1914H423.089C411.226 17.1914 401.608 26.8087 401.608 38.6722V38.6823C401.608 50.5458 411.226 60.163 423.089 60.163H457.029C468.892 60.163 478.509 50.5458 478.509 38.6823V38.6722C478.509 26.8087 468.892 17.1914 457.029 17.1914Z" fill="#7CCDF1"/>
<path d="M443.222 363.75H388.613C382.916 363.75 377.452 366.013 373.423 370.042C369.395 374.07 367.132 379.534 367.132 385.231C367.132 390.928 369.395 396.392 373.423 400.42C377.452 404.448 382.916 406.712 388.613 406.712H443.222C448.919 406.712 454.383 404.448 458.411 400.42C462.439 396.392 464.702 390.928 464.702 385.231C464.702 379.534 462.439 374.07 458.411 370.042C454.383 366.013 448.919 363.75 443.222 363.75Z" fill="#7CCDF1"/>
<path d="M416.5 212.312H424.681C427.567 212.312 430.425 211.743 433.091 210.639C435.758 209.534 438.181 207.916 440.221 205.875C442.262 203.834 443.881 201.411 444.986 198.745C446.09 196.078 446.658 193.22 446.658 190.334C446.658 187.448 446.09 184.59 444.986 181.924C443.881 179.257 442.262 176.835 440.221 174.794C438.181 172.753 435.758 171.134 433.091 170.03C430.425 168.925 427.567 168.357 424.681 168.357H402.957C401.894 168.36 400.849 168.074 399.937 167.528C399.024 166.983 398.277 166.198 397.777 165.26C397.276 164.322 397.041 163.265 397.097 162.203C397.152 161.141 397.496 160.114 398.091 159.233C400.612 155.572 401.959 151.23 401.953 146.785C401.957 144.274 401.528 141.781 400.686 139.415C400.142 137.812 399.99 136.102 400.243 134.428C400.495 132.753 401.145 131.164 402.137 129.793C403.13 128.421 404.436 127.307 405.947 126.544C407.458 125.78 409.13 125.39 410.823 125.405C416.652 125.405 422.242 123.09 426.364 118.968C430.485 114.847 432.801 109.257 432.801 103.428C432.801 100.538 432.231 97.6773 431.124 95.0082C430.017 92.3391 428.395 89.9146 426.35 87.8732C424.304 85.8319 421.877 84.2139 419.206 83.1118C416.535 82.0097 413.672 81.4452 410.783 81.4505H385.014C384.788 76.8424 382.802 72.4969 379.465 69.3108C376.128 66.1248 371.695 64.3414 367.081 64.3288H364.04C364.027 58.6349 361.76 53.1779 357.734 49.1508C353.709 45.1236 348.253 42.854 342.559 42.8379H243.955C238.262 42.8566 232.807 45.1272 228.783 49.1537C224.758 53.1803 222.49 58.6357 222.474 64.3288H217.77C213.158 64.3416 208.726 66.1253 205.391 69.3115C202.056 72.4978 200.071 76.8433 199.848 81.4505H179.776C173.947 81.4505 168.357 83.766 164.236 87.8876C160.114 92.0092 157.799 97.5992 157.799 103.428C157.796 105.939 158.225 108.432 159.066 110.798C159.612 112.401 159.766 114.112 159.515 115.787C159.263 117.462 158.614 119.052 157.621 120.425C156.628 121.797 155.32 122.911 153.808 123.674C152.296 124.436 150.622 124.825 148.929 124.807C143.1 124.807 137.51 127.123 133.388 131.244C129.267 135.366 126.951 140.956 126.951 146.785C126.951 152.614 129.267 158.204 133.388 162.325C137.51 166.447 143.1 168.762 148.929 168.762H189.477C183.78 169.868 178.75 173.179 175.481 177.974C172.213 182.77 170.969 188.662 172.021 194.369C172.428 196.391 172.382 198.478 171.888 200.48C171.393 202.483 170.462 204.351 169.161 205.951C167.86 207.551 166.221 208.844 164.362 209.737C162.503 210.63 160.469 211.101 158.407 211.116H158.224C152.396 211.116 146.806 213.431 142.684 217.553C138.562 221.674 136.247 227.264 136.247 233.093C136.243 235.986 136.81 238.851 137.916 241.525C139.022 244.198 140.645 246.626 142.691 248.671C144.738 250.716 147.168 252.336 149.842 253.44C152.516 254.543 155.382 255.108 158.275 255.101C159.225 255.101 160.156 255.367 160.962 255.871C161.768 256.374 162.416 257.094 162.832 257.948C163.249 258.802 163.417 259.756 163.317 260.701C163.218 261.646 162.854 262.543 162.269 263.292C159.323 267.171 157.75 271.92 157.8 276.791C157.849 281.662 159.518 286.378 162.543 290.196C163.086 290.876 163.426 291.696 163.524 292.56C163.623 293.425 163.476 294.3 163.101 295.085C162.725 295.869 162.136 296.533 161.401 296.999C160.666 297.464 159.814 297.714 158.944 297.718C153.115 297.718 147.525 300.033 143.404 304.155C139.282 308.276 136.967 313.866 136.967 319.695C136.967 325.524 139.282 331.114 143.404 335.236C147.525 339.357 153.115 341.673 158.944 341.673H175.042C175.058 346.426 176.954 350.981 180.315 354.343C183.677 357.704 188.231 359.6 192.985 359.616H212.195C213.06 364.603 215.653 369.126 219.519 372.392C223.386 375.659 228.28 377.459 233.341 377.477H287.94C293.002 377.459 297.895 375.659 301.762 372.392C305.629 369.126 308.222 364.603 309.086 359.616H342.276C347.031 359.602 351.588 357.708 354.952 354.346C358.316 350.984 360.213 346.428 360.229 341.673H375.526C379.056 341.669 382.533 340.817 385.664 339.187C388.795 337.556 391.488 335.197 393.515 332.307C395.542 329.417 396.843 326.082 397.31 322.583C397.777 319.084 397.394 315.524 396.195 312.204C395.629 310.673 395.441 309.029 395.646 307.41C395.852 305.791 396.445 304.246 397.375 302.906C398.306 301.565 399.546 300.469 400.991 299.711C402.435 298.952 404.042 298.554 405.674 298.549H410.742C416.571 298.549 422.161 296.234 426.283 292.112C430.404 287.99 432.72 282.4 432.72 276.572C432.72 270.743 430.404 265.153 426.283 261.031C422.161 256.91 416.571 254.594 410.742 254.594C409.792 254.594 408.861 254.328 408.055 253.824C407.25 253.321 406.602 252.601 406.185 251.747C405.769 250.893 405.601 249.939 405.7 248.994C405.8 248.049 406.163 247.152 406.748 246.403C409.651 242.585 411.222 237.92 411.219 233.123C411.223 229.892 410.509 226.7 409.13 223.777C408.57 222.543 408.327 221.187 408.425 219.835C408.523 218.483 408.958 217.177 409.692 216.036C410.425 214.896 411.432 213.957 412.621 213.307C413.811 212.656 415.145 212.314 416.5 212.312Z" fill="#7CCDF1"/>
<path d="M458.673 147.345L442.078 83.2979L338.699 110.08L311.916 6.70117L247.869 23.2856L274.652 126.665L171.272 153.447L187.867 217.494L291.246 190.712L318.029 294.091L382.066 277.496L355.283 174.117L458.673 147.345Z" fill="#E46054"/>
<path d="M426.01 217.422C459.94 209.09 494.943 227.022 495.258 265.929C495.592 303.933 447.937 333.848 392.507 319.778L392.639 310.472C418.793 317.73 447.319 307.431 458.591 292.498C474.618 271.21 458.591 244.742 428.048 252.426L426.01 217.422Z" fill="white"/>
<path d="M420.321 324.338C410.852 324.316 401.423 323.114 392.251 320.76L391.48 320.567L391.633 309.143L392.9 309.497C419.256 316.816 447.113 306.051 457.778 291.889C464.955 282.35 465.888 271.138 460.251 262.613C454.108 253.358 442.156 249.921 428.299 253.408L427.103 253.712L424.954 216.641L425.764 216.438C444.681 211.795 464.032 215.272 477.535 225.754C489.639 235.161 496.117 249.069 496.259 265.918C496.401 281.427 488.788 295.995 474.829 306.953C460.272 318.357 441.011 324.338 420.321 324.338ZM393.528 318.966C423.403 326.335 453.267 321.267 473.612 305.331C487.074 294.768 494.404 280.769 494.272 265.907C494.13 249.688 487.926 236.337 476.329 227.325C463.515 217.37 445.167 213.974 427.113 218.202L429.029 251.148C443.059 247.995 455.619 251.898 461.975 261.488C468.118 270.743 467.155 282.857 459.44 293.095C448.553 307.561 420.493 318.631 393.67 311.778L393.528 318.966Z" fill="#07038C"/>
<path d="M218.368 207.987C232.56 214.941 262.495 222.361 303.784 222.361C345.073 222.361 374.978 214.941 389.2 207.987C398.379 203.499 408.964 202.842 418.628 206.16C428.291 209.477 436.241 216.497 440.728 225.676C445.215 234.855 445.872 245.44 442.555 255.103C439.237 264.767 432.217 272.716 423.038 277.203C394.168 291.314 350.699 299.404 303.784 299.404C256.869 299.404 213.401 291.294 184.53 277.203C175.371 272.704 168.367 264.759 165.051 255.108C161.736 245.456 162.379 234.885 166.841 225.706C173.024 212.934 183.902 202.056 191.342 189.882C202.767 171.168 208.768 158.507 204.977 144.426C204.298 141.902 197.678 119.904 175.021 125.48C160.728 128.997 154.25 138.658 150.054 162.339C148.472 171.219 141.944 178.558 134.067 177.859L134.655 160.342L133.844 184.732C123.91 185.066 110.295 181.457 100.543 159.51C97.1981 151.968 92.6263 142.003 91.6328 127.73C91.6328 127.092 93.4981 114.552 93.4981 114.552C95.4545 112.687 101.851 105.57 106.311 102.59C108.994 100.892 111.812 99.4176 114.736 98.1803L115.141 81.5755L129.009 90.699L133.682 88.256C137.579 85.3757 141.744 82.8772 146.12 80.795C146.472 75.1491 147.303 69.5434 148.604 64.0382C153.103 67.4548 157.324 71.2242 161.225 75.3107L162.583 74.9559C168.556 73.4713 174.677 72.6654 180.83 72.5534C183.487 67.5455 186.602 62.7945 190.136 58.3613C192.844 63.3374 195.077 68.5575 196.806 73.9524C203.299 75.242 209.58 77.429 215.469 80.4503C220.182 77.2971 225.189 74.6083 230.421 72.4216C230.424 78.0911 229.898 83.7485 228.85 89.3204C233.93 93.5583 238.456 98.4184 242.322 103.786C247.943 103.122 253.609 102.932 259.262 103.218C256.733 108.275 253.779 113.107 250.432 117.664C252.384 121.917 253.978 126.325 255.197 130.842C255.714 132.728 256.129 134.593 256.504 136.428C261.896 138.139 267.132 140.306 272.156 142.906C267.767 146.47 263.08 149.651 258.147 152.414C258.151 159.027 257.379 165.618 255.845 172.05C260.006 175.83 263.898 179.895 267.493 184.215C262.047 185.601 256.518 186.637 250.939 187.317C247.016 196.642 242.566 205.736 237.609 214.555" fill="white"/>
<path d="M303.785 300.419C256.718 300.419 213.087 292.309 184.085 278.117C174.694 273.479 167.516 265.319 164.116 255.413C160.715 245.507 161.367 234.658 165.929 225.231C169.568 217.719 174.86 210.795 179.969 204.095C183.723 199.357 187.228 194.427 190.471 189.325C202.494 169.649 207.583 157.9 204.004 144.66C203.345 142.238 196.979 121.081 175.265 126.413C161.509 129.819 155.143 139.257 151.088 162.492C149.395 172.041 142.623 178.884 135.092 178.884L134.869 185.686H133.916C118.984 186.192 107.498 177.505 99.662 159.856L99.4086 159.288C96.1342 151.919 91.6435 141.832 90.6602 127.741C90.6602 127.093 91.8158 119.084 92.5355 114.37V114.026L92.789 113.793C93.2451 113.357 93.9345 112.647 94.8164 111.765C97.6041 108.886 102.257 104.061 105.775 101.719C108.318 100.096 110.986 98.6757 113.753 97.4716L114.168 79.7315L129.07 89.5342L133.125 87.4054C136.903 84.6306 140.924 82.2014 145.138 80.1471C145.511 74.6447 146.339 69.1825 147.611 63.8161L147.966 62.3057L149.203 63.2383C153.59 66.5658 157.714 70.226 161.54 74.1865L162.351 73.9837C168.19 72.5371 174.168 71.7248 180.182 71.5609C182.812 66.7061 185.865 62.0927 189.305 57.7743L190.258 56.5781L190.988 57.9162C193.63 62.7772 195.829 67.8664 197.557 73.1221C203.734 74.4107 209.718 76.4961 215.358 79.326C219.984 76.2867 224.881 73.6805 229.986 71.5406L231.385 70.9527V72.4733C231.388 78.0072 230.896 83.5303 229.915 88.9767C234.719 93.0409 239.027 97.6582 242.749 102.733C248.234 102.114 253.76 101.948 259.272 102.236L260.823 102.307L260.124 103.696C257.66 108.626 254.795 113.346 251.558 117.807C253.42 121.958 254.952 126.249 256.14 130.641C256.566 132.232 256.961 133.895 257.336 135.709C262.568 137.414 267.653 139.54 272.542 142.065L273.921 142.775L272.714 143.789C268.433 147.266 263.873 150.386 259.08 153.115C259.036 159.407 258.302 165.676 256.89 171.808C260.919 175.518 264.695 179.494 268.193 183.709L269.207 184.935L267.656 185.341C262.361 186.686 256.988 187.702 251.568 188.382C247.807 197.191 243.584 205.796 238.917 214.161C254.873 218.216 276.86 221.399 303.704 221.399C344.82 221.399 374.563 214.029 388.674 207.126C393.339 204.845 398.407 203.506 403.589 203.184C408.771 202.863 413.966 203.565 418.877 205.251C423.788 206.937 428.319 209.573 432.211 213.01C436.102 216.447 439.279 220.617 441.56 225.282C443.84 229.946 445.179 235.014 445.501 240.197C445.823 245.379 445.121 250.574 443.435 255.485C441.749 260.396 439.112 264.926 435.675 268.818C432.238 272.71 428.069 275.887 423.404 278.167C394.482 292.289 350.852 300.419 303.785 300.419ZM181.966 123.545C185.192 123.501 188.389 124.164 191.331 125.488C194.273 126.812 196.89 128.765 198.997 131.208C202.225 134.963 204.601 139.372 205.961 144.133C209.712 158.052 204.268 170.632 192.205 190.379C188.921 195.541 185.375 200.532 181.581 205.332C176.512 211.951 171.302 218.794 167.754 226.123C163.424 235.067 162.806 245.36 166.034 254.758C169.263 264.156 176.075 271.896 184.987 276.292C213.726 290.342 257.032 298.391 303.795 298.391C350.558 298.391 393.864 290.342 422.603 276.292C431.485 271.89 438.263 264.152 441.456 254.768C444.65 245.384 443.998 235.117 439.645 226.212C435.291 217.306 427.589 210.486 418.223 207.242C408.856 203.999 398.586 204.594 389.657 208.9C375.333 215.895 345.266 223.376 303.795 223.376C262.324 223.376 232.257 215.895 217.933 208.9L218.825 207.075C224.662 209.784 230.736 211.949 236.971 213.543C241.8 204.942 246.145 196.078 249.987 186.993L250.21 186.436L250.808 186.365C255.798 185.763 260.75 184.876 265.639 183.709C262.368 179.871 258.857 176.244 255.126 172.852L254.68 172.446L254.822 171.869C256.335 165.509 257.097 158.993 257.093 152.456V151.868L257.62 151.574C262.045 149.09 266.272 146.266 270.261 143.13C265.713 140.877 260.999 138.976 256.16 137.443L255.593 137.26L255.481 136.672C255.076 134.645 254.65 132.861 254.194 131.147C252.989 126.671 251.412 122.304 249.48 118.091L249.226 117.553L249.581 117.067C252.589 112.984 255.274 108.673 257.61 104.172C252.533 103.989 247.449 104.196 242.404 104.791L241.806 104.862L241.461 104.375C237.635 99.1096 233.168 94.3421 228.161 90.183L227.695 89.7978L227.806 89.2199C228.754 84.2049 229.266 79.1174 229.337 74.0141C224.683 76.0648 220.215 78.5171 215.986 81.3433L215.49 81.6779L214.963 81.4042C209.155 78.4295 202.963 76.2734 196.564 74.9974L195.976 74.8758L195.793 74.3081C194.239 69.47 192.275 64.773 189.924 60.2681C186.823 64.2922 184.062 68.5681 181.672 73.0511L181.388 73.5782H180.79C174.726 73.6958 168.694 74.4915 162.807 75.9503L161.793 76.2139L160.901 76.4471L160.495 76.0213C156.993 72.3534 153.229 68.9451 149.233 65.8233C148.14 70.7753 147.435 75.8051 147.124 80.8669V81.465L146.587 81.7184C142.27 83.7754 138.16 86.2398 134.311 89.078L134.179 89.1693L128.948 91.8962L116.105 83.4417L115.729 98.8807L115.121 99.1341C112.258 100.347 109.498 101.792 106.87 103.453C103.545 105.673 98.9828 110.397 96.2559 113.225C95.526 113.975 94.9076 114.614 94.4515 115.06C93.7419 119.733 92.6673 127.011 92.647 127.701C93.5999 141.386 97.8272 150.885 101.213 158.518L101.477 159.086C108.745 175.447 119.237 183.729 132.679 183.729H132.841L133.622 160.302L135.649 160.373L135.102 176.876C141.63 176.876 147.52 170.703 149.03 162.157C153.318 137.96 160.049 128.106 174.758 124.477C177.115 123.879 179.535 123.566 181.966 123.545Z" fill="#07038C"/>
<path d="M115.181 157.334C113.66 157.055 112.222 156.436 110.974 155.523C109.726 154.61 108.7 153.427 107.974 152.062C107.299 150.519 106.973 148.846 107.019 147.162C107.064 145.478 107.48 143.825 108.237 142.32L110.082 143.152C109.452 144.384 109.099 145.74 109.048 147.123C108.997 148.507 109.25 149.884 109.788 151.16C110.381 152.251 111.212 153.195 112.22 153.921C113.227 154.648 114.384 155.138 115.607 155.357L115.181 157.334Z" fill="#07038C"/>
<path d="M115.854 169.559L114.213 170.75L119.405 177.904L121.046 176.713L115.854 169.559Z" fill="#07038C"/>
<path d="M210.076 201.943L208.19 201.203C210.724 194.726 219.625 191.39 227.451 188.451C234.081 185.967 240.345 183.615 241.359 180.057C242.819 174.907 239.555 169.058 236.402 163.402C233.817 158.769 231.384 154.4 231.333 150.294C231.283 145.398 233.685 140.218 236.007 135.2C238.693 129.422 241.227 123.958 239.494 119.994C237.152 114.571 230.046 113.009 223.183 111.499C218.844 110.546 214.739 109.644 211.698 107.819C208.2 105.711 206.629 100.672 205.088 95.8066C203.78 91.6301 202.422 87.3116 200.09 86.4601C196.705 85.2132 192.305 88.2443 188.058 91.1942C184.418 93.7082 180.962 96.0905 177.991 95.8472C174.099 95.5431 170.317 92.2282 166.658 89.035C163.272 86.0749 159.765 83.0135 157.301 83.6927C153.753 84.7064 152.121 89.927 150.54 95.0159C149.252 99.1519 148.046 103.055 145.725 104.707C140.818 108.174 135.993 107.252 131.745 106.441C127.498 105.63 124.254 105.011 121.862 108.742L120.148 107.637C123.291 102.761 127.782 103.582 132.12 104.454C136.175 105.224 140.352 106.025 144.549 103.045C146.313 101.798 147.478 98.0469 148.604 94.4178C150.266 89.0654 152.141 83.0033 156.713 81.7362C160.231 80.7225 163.972 84.0373 167.935 87.5043C171.351 90.4846 174.879 93.5866 178.072 93.8299C180.353 94.0022 183.628 91.7315 186.821 89.5216C191.494 86.2878 196.33 82.9425 200.709 84.5543C203.973 85.7505 205.423 90.3427 206.943 95.1984C208.362 99.7095 209.822 104.322 212.661 106.076C215.499 107.829 219.361 108.6 223.538 109.522C230.897 111.144 238.521 112.817 241.278 119.193C243.366 124.018 240.649 129.878 237.77 136.082C235.54 140.897 233.239 145.864 233.28 150.274C233.28 153.862 235.632 158.019 238.085 162.439C241.44 168.46 244.917 174.674 243.224 180.685C241.937 185.227 235.206 187.782 228.079 190.417C220.73 193.144 212.286 196.307 210.076 201.943Z" fill="#07038C"/>
<path d="M515.46 358.5C511.334 358.5 509.185 356.767 507.289 355.236C505.394 353.705 503.802 352.418 500.386 352.418C496.97 352.418 495.317 353.726 493.493 355.236C491.668 356.747 489.438 358.5 485.312 358.5C481.186 358.5 479.037 356.767 477.141 355.236C475.246 353.705 473.654 352.418 470.248 352.418C466.842 352.418 465.179 353.726 463.344 355.236C461.51 356.747 459.259 358.5 455.204 358.5C451.149 358.5 448.929 356.767 447.024 355.236C445.118 353.705 443.536 352.418 440.12 352.418V350.391C444.256 350.391 446.405 352.134 448.301 353.665C450.197 355.196 451.748 356.473 455.204 356.473C458.661 356.473 460.273 355.175 462.108 353.665C463.943 352.155 466.163 350.391 470.288 350.391C474.414 350.391 476.563 352.134 478.459 353.665C480.355 355.196 481.946 356.473 485.352 356.473C488.758 356.473 490.421 355.175 492.256 353.665C494.091 352.155 496.311 350.391 500.426 350.391C504.542 350.391 506.701 352.134 508.597 353.665C510.493 355.196 512.094 356.473 515.5 356.473L515.46 358.5Z" fill="#07038C"/>
<path d="M495.671 344.799C491.545 344.799 489.396 343.066 487.5 341.535C485.605 340.004 484.013 338.717 480.607 338.717C477.201 338.717 475.538 340.025 473.704 341.535C471.869 343.045 469.649 344.799 465.533 344.799C461.417 344.799 459.258 343.066 457.352 341.535C455.446 340.004 453.865 338.717 450.459 338.717C447.053 338.717 445.39 340.025 443.556 341.535C441.721 343.045 439.501 344.799 435.375 344.799C431.249 344.799 429.1 343.066 427.204 341.535C425.309 340.004 423.707 338.717 420.301 338.717V336.689C424.427 336.689 426.576 338.423 428.471 339.954C430.367 341.484 431.969 342.772 435.375 342.772C438.781 342.772 440.443 341.464 442.278 339.954C444.113 338.443 446.333 336.689 450.459 336.689C454.585 336.689 456.734 338.423 458.63 339.954C460.525 341.484 462.117 342.772 465.533 342.772C468.949 342.772 470.602 341.464 472.426 339.954C474.251 338.443 476.481 336.689 480.607 336.689C484.733 336.689 486.882 338.423 488.778 339.954C490.673 341.484 492.265 342.772 495.671 342.772V344.799Z" fill="#07038C"/>
<path d="M127.002 284.582C122.877 284.582 120.727 282.849 118.832 281.318C116.936 279.788 115.334 278.5 111.928 278.5C108.522 278.5 106.86 279.808 105.025 281.318C103.19 282.829 100.97 284.582 96.8543 284.582C92.7386 284.582 90.5794 282.849 88.6837 281.318C86.7881 279.788 85.1965 278.5 81.7803 278.5C78.364 278.5 76.7117 279.808 74.8768 281.318C73.042 282.829 70.8219 284.582 66.7062 284.582C62.5905 284.582 60.4212 282.849 58.5255 281.318C56.6298 279.788 55.0383 278.5 51.6221 278.5V276.473C55.7479 276.473 57.897 278.206 59.8028 279.737C61.7086 281.268 63.29 282.555 66.7062 282.555C70.1225 282.555 71.7748 281.247 73.6097 279.737C75.4445 278.226 77.6646 276.473 81.7803 276.473C85.896 276.473 88.0552 278.206 89.9509 279.737C91.8465 281.268 93.4482 282.555 96.8543 282.555C100.26 282.555 101.923 281.247 103.758 279.737C105.593 278.226 107.813 276.473 111.928 276.473C116.044 276.473 118.203 278.206 120.099 279.737C121.995 281.268 123.586 282.555 127.002 282.555V284.582Z" fill="#07038C"/>
<path d="M108.563 270.858C104.437 270.858 102.288 269.124 100.392 267.594C98.4967 266.063 96.895 264.775 93.4889 264.775C90.0828 264.775 88.4203 266.073 86.5854 267.594C84.7506 269.114 82.5306 270.858 78.4148 270.858C74.2991 270.858 72.1399 269.124 70.2443 267.594C68.3486 266.063 66.7571 264.775 63.3408 264.775C59.9246 264.775 58.2722 266.073 56.4374 267.594C54.6025 269.114 52.3825 270.858 48.2668 270.858C44.1511 270.858 41.9817 269.124 40.0861 267.594C38.1904 266.063 36.5989 264.775 33.1826 264.775V262.748C37.3085 262.748 39.4575 264.482 41.3633 266.012C43.2691 267.543 44.8505 268.83 48.2668 268.83C51.683 268.83 53.3354 267.523 55.1702 266.012C57.0051 264.502 59.2251 262.748 63.3408 262.748C67.4565 262.748 69.6157 264.482 71.5114 266.012C73.4071 267.543 75.0087 268.83 78.4148 268.83C81.8209 268.83 83.4835 267.523 85.3183 266.012C87.1531 264.502 89.3732 262.748 93.4889 262.748C97.6046 262.748 99.7638 264.482 101.659 266.012C103.555 267.543 105.147 268.83 108.563 268.83V270.858Z" fill="#07038C"/>
<path d="M481.144 95.118C477.019 95.118 474.87 93.3846 472.974 91.8539C471.078 90.3231 469.487 89.0357 466.07 89.0357C462.654 89.0357 461.002 90.3434 459.177 91.8539C457.352 93.3643 455.122 95.118 450.996 95.118C446.871 95.118 444.721 93.3846 442.826 91.8539C440.93 90.3231 439.339 89.0357 435.922 89.0357C432.506 89.0357 430.854 90.3434 429.019 91.8539C427.184 93.3643 424.964 95.118 420.848 95.118C416.733 95.118 414.563 93.3846 412.627 91.8944C410.691 90.4042 409.14 89.0763 405.724 89.0763V87.0488C409.849 87.0488 412.009 88.7823 413.904 90.313C415.8 91.8437 417.392 93.1312 420.808 93.1312C424.224 93.1312 425.876 91.8235 427.711 90.313C429.546 88.8026 431.766 87.0488 435.882 87.0488C439.998 87.0488 442.157 88.7823 444.063 90.313C445.968 91.8437 447.55 93.1312 450.956 93.1312C454.362 93.1312 456.024 91.8235 457.859 90.313C459.694 88.8026 461.914 87.0488 466.03 87.0488C470.146 87.0488 472.305 88.7823 474.2 90.313C476.096 91.8437 477.698 93.1312 481.104 93.1312L481.144 95.118Z" fill="#07038C"/>
<path d="M462.706 81.3832C458.581 81.3832 456.432 79.6497 454.536 78.119C452.64 76.5883 451.049 75.3009 447.632 75.3009C444.216 75.3009 442.564 76.6086 440.739 78.119C438.914 79.6295 436.684 81.3832 432.558 81.3832C428.433 81.3832 426.283 79.6497 424.388 78.119C422.492 76.5883 420.901 75.3009 417.484 75.3009C414.068 75.3009 412.416 76.6086 410.581 78.119C408.746 79.6295 406.526 81.3832 402.41 81.3832C398.295 81.3832 396.125 79.6497 394.23 78.119C392.334 76.5883 390.742 75.3009 387.326 75.3009V73.2734C391.452 73.2734 393.611 75.017 395.507 76.5478C397.403 78.0785 398.994 79.3558 402.41 79.3558C405.827 79.3558 407.479 78.0582 409.314 76.5478C411.149 75.0373 413.369 73.2734 417.484 73.2734C421.6 73.2734 423.769 75.017 425.665 76.5478C427.561 78.0785 429.152 79.3558 432.558 79.3558C435.965 79.3558 437.627 78.0582 439.462 76.5478C441.297 75.0373 443.517 73.2734 447.632 73.2734C451.748 73.2734 453.907 75.017 455.803 76.5478C457.699 78.0785 459.3 79.3558 462.706 79.3558V81.3832Z" fill="#07038C"/>
<path d="M274.761 22.4926C270.635 22.4926 268.486 20.7591 266.59 19.2284C264.695 17.6977 263.103 16.4103 259.697 16.4103C256.291 16.4103 254.628 17.718 252.793 19.2284C250.959 20.7388 248.739 22.4926 244.623 22.4926C240.507 22.4926 238.348 20.7591 236.452 19.2284C234.557 17.6977 232.955 16.4103 229.549 16.4103C226.143 16.4103 224.48 17.718 222.645 19.2284C220.811 20.7388 218.591 22.4926 214.465 22.4926C210.339 22.4926 208.19 20.7591 206.294 19.2284C204.398 17.6977 202.797 16.4103 199.391 16.4103V14.3828C203.516 14.3828 205.666 16.1264 207.561 17.6571C209.457 19.1879 211.059 20.4651 214.465 20.4651C217.871 20.4651 219.533 19.1676 221.368 17.6571C223.203 16.1467 225.423 14.3828 229.549 14.3828C233.675 14.3828 235.824 16.1264 237.719 17.6571C239.615 19.1879 241.207 20.4651 244.623 20.4651C248.039 20.4651 249.691 19.1676 251.516 17.6571C253.341 16.1467 255.571 14.3828 259.697 14.3828C263.823 14.3828 265.972 16.1264 267.867 17.6571C269.763 19.1879 271.355 20.4651 274.761 20.4651V22.4926Z" fill="#07038C"/>
<path d="M256.363 8.76797C252.237 8.76797 250.088 7.03451 248.193 5.50379C246.297 3.97307 244.706 2.68565 241.31 2.68565C237.914 2.68565 236.241 3.99335 234.406 5.50379C232.571 7.01423 230.351 8.76797 226.225 8.76797C222.1 8.76797 219.95 7.03451 218.055 5.50379C216.159 3.97307 214.557 2.68565 211.151 2.68565C207.745 2.68565 206.083 3.99335 204.248 5.50379C202.413 7.01423 200.203 8.76797 196.067 8.76797C191.931 8.76797 189.792 7.03451 187.897 5.50379C186.001 3.97307 184.399 2.68565 180.993 2.68565V0.658203C185.119 0.658203 187.268 2.39167 189.164 3.92238C191.059 5.4531 192.651 6.74053 196.067 6.74053C199.483 6.74053 201.136 5.43283 202.971 3.92238C204.805 2.41194 207.026 0.658203 211.151 0.658203C215.277 0.658203 217.426 2.39167 219.322 3.92238C221.218 5.4531 222.809 6.74053 226.225 6.74053C229.642 6.74053 231.294 5.43283 233.119 3.92238C234.943 2.41194 237.174 0.658203 241.31 0.658203C245.446 0.658203 247.584 2.39167 249.48 3.92238C251.376 5.4531 252.957 6.74053 256.363 6.74053V8.76797Z" fill="#07038C"/>
<path d="M91.9058 129.179C96.2496 127.264 99.7934 123.899 101.931 119.66C102.875 117.695 103.306 115.524 103.186 113.347C103.065 111.171 102.397 109.061 101.242 107.212C101.242 107.212 59.8519 99.4263 42.8721 137.218C70.7798 108.742 91.9058 129.179 91.9058 129.179Z" fill="#F1B830"/>
<path d="M89.6054 123.431L88.835 121.556C89.1087 121.444 95.4951 118.697 93.9036 110.749L95.931 110.344C96.5758 112.921 96.2958 115.642 95.1398 118.034C93.9838 120.425 92.0252 122.335 89.6054 123.431Z" fill="#07038C"/>
<path d="M81.3755 119.831L80.0576 118.249L80.7165 119.02L80.0576 118.259C80.9812 117.383 81.566 116.21 81.7088 114.945C81.8516 113.68 81.5432 112.405 80.8382 111.346L82.6021 110.332C83.5546 111.804 83.954 113.567 83.7294 115.306C83.5049 117.045 82.6708 118.648 81.3755 119.831Z" fill="#07038C"/>
<path d="M71.9065 120.102L70.0818 119.22L70.9941 119.666L70.0716 119.23C70.4616 118.336 70.5164 117.332 70.2259 116.401C69.9355 115.47 69.3193 114.675 68.4902 114.161L69.6966 112.529C70.9047 113.323 71.7906 114.521 72.1956 115.909C72.6005 117.296 72.498 118.783 71.9065 120.102Z" fill="#07038C"/>
<path d="M62.0828 123.317L60.0554 123.216H61.0691H60.0554C60.0583 122.707 59.8772 122.215 59.5456 121.829C59.214 121.444 58.7542 121.191 58.251 121.117L58.7376 119.141C59.6996 119.328 60.564 119.85 61.1766 120.615C61.7893 121.38 62.1105 122.338 62.0828 123.317Z" fill="#07038C"/>
<path d="M349.353 329.104C349.353 329.104 368.958 309.144 410.966 299.949C403.212 316.108 401.944 325.718 413.176 338.754C397.535 330.259 378.568 326.823 349.353 329.104Z" fill="#F1B830"/>
<path d="M383.505 316.159L382.674 314.314C388.691 311.707 394.839 309.413 401.093 307.441L401.691 309.378C395.517 311.325 389.447 313.589 383.505 316.159Z" fill="#07038C"/>
<path d="M367.598 323.754L366.523 322.011C370.461 319.584 374.594 317.492 378.881 315.756L379.6 317.652C375.442 319.36 371.428 321.4 367.598 323.754Z" fill="#07038C"/>
<path d="M128.421 184.485L126.394 184.434L127.022 161.058C127.023 160.054 127.224 159.06 127.615 158.135C128.006 157.21 128.578 156.373 129.297 155.673C130.017 154.973 130.869 154.423 131.804 154.058C132.739 153.692 133.738 153.517 134.742 153.544C135.745 153.57 136.733 153.797 137.648 154.211C138.563 154.626 139.385 155.219 140.066 155.956C140.748 156.693 141.275 157.559 141.617 158.503C141.958 159.448 142.108 160.451 142.056 161.453L141.65 176.345L139.623 176.294L140.028 161.402C140.064 159.948 139.521 158.538 138.52 157.482C137.519 156.425 136.14 155.809 134.686 155.766C133.231 155.727 131.82 156.267 130.763 157.267C130.234 157.759 129.81 158.354 129.516 159.014C129.222 159.674 129.063 160.386 129.05 161.109L128.421 184.485Z" fill="#07038C"/>
<path d="M305.549 277.779C299.689 277.779 294.641 269.771 289.765 262.026C285.609 255.437 281.311 248.625 277.367 248.321C272.633 247.945 266.865 254.545 261.279 260.921C255.451 267.581 249.946 273.856 244.959 273.086C238.876 272.072 235.095 263.151 231.436 254.484C228.506 247.54 225.475 240.363 221.907 239.471C217.193 238.295 211.232 243.526 205.494 248.594C198.865 254.433 192.012 260.465 185.656 258.204C175.569 254.606 175.64 245.36 175.711 237.2C175.762 230.368 175.803 223.92 170.48 220.879L171.494 219.115C177.85 222.744 177.8 230.104 177.749 237.21C177.678 245.421 177.617 253.186 186.345 256.288C191.586 258.154 197.983 252.517 204.166 247.074C210.583 241.417 216.645 236.075 222.413 237.514C226.965 238.65 230.047 245.959 233.311 253.734C236.575 261.509 240.295 270.308 245.273 271.068C249.135 271.687 254.548 265.534 259.749 259.583C265.669 252.842 271.802 245.867 277.519 246.303C282.476 246.678 286.845 253.612 291.478 260.951C296.111 268.291 300.815 275.752 305.549 275.752C310.09 275.752 314.672 268.271 319.122 261.043C323.654 253.663 327.932 246.688 332.828 246.303C338.393 245.877 344.364 252.842 350.132 259.583C355.201 265.564 360.553 271.748 364.324 271.15C369.089 270.399 372.698 261.692 375.891 253.997C379.084 246.303 382.216 238.883 386.707 237.869C392.151 236.572 398.112 241.65 404.417 247.043C411.087 252.74 418.001 258.64 424.093 256.714C429.8 254.91 429.932 247.935 430.084 240.555C430.236 232.588 430.409 224.336 437.302 220.889L438.214 222.704C432.406 225.613 432.254 233.226 432.132 240.596C431.98 248.371 431.818 256.41 424.722 258.65C417.626 260.891 410.215 254.646 403.119 248.584C397.219 243.516 391.644 238.771 387.194 239.846C383.686 240.687 380.696 247.874 377.817 254.829C374.249 263.405 370.569 272.285 364.689 273.207C359.762 273.988 354.339 267.652 348.612 260.951C343.168 254.595 337.562 248.016 333 248.371C329.138 248.675 324.89 255.528 320.836 262.148C316.122 269.811 311.256 277.779 305.549 277.779Z" fill="#07038C"/>
<path d="M440.771 314.454L440.314 312.477C451.344 309.922 454.689 305.553 457.375 302.046C458.265 300.771 459.31 299.613 460.487 298.599C463.022 296.572 466.651 296.338 470.158 296.075C473.666 295.811 477.133 295.558 478.471 293.47C479.981 291.128 477.984 287.124 476.058 283.251C474.396 279.906 472.672 276.459 472.936 273.57C473.271 270.032 475.369 266.383 477.406 262.855C479.819 258.668 482.1 254.745 480.711 252.049C479.069 248.917 474.234 248.724 469.56 248.541C465.85 248.389 462.018 248.237 459.484 246.595C456.777 244.841 455.581 241.689 454.415 238.637C453.493 236.225 452.631 233.934 451.121 232.677C450.107 231.825 448.221 230.882 443.781 232.565L443.062 230.67C447.117 229.129 450.158 229.271 452.418 231.116C454.334 232.717 455.338 235.363 456.311 237.918C457.325 240.665 458.42 243.503 460.569 244.892C462.718 246.281 466.185 246.372 469.621 246.514C474.862 246.717 480.285 246.94 482.475 251.116C484.381 254.756 481.826 259.226 479.13 263.869C477.204 267.204 475.217 270.661 474.933 273.753C474.71 276.064 476.302 279.257 477.842 282.349C480.022 286.728 482.283 291.26 480.144 294.564C478.258 297.504 474.203 297.808 470.28 298.092C467.077 298.335 463.762 298.579 461.714 300.191C460.673 301.087 459.747 302.108 458.957 303.232C456.22 306.8 452.51 311.727 440.771 314.454Z" fill="#07038C"/>
</svg>
