<svg width="41" height="41" viewBox="0 0 41 41" fill="none" xmlns="http://www.w3.org/2000/svg">
<rect x="0.5" y="0.0332031" width="40" height="40" rx="20" fill="#C4EFCE"/>
<path d="M19.2165 26.5319C18.7815 26.5319 18.3695 26.3289 18.1055 25.9789L14.5325 21.2579C14.422 21.1121 14.3414 20.946 14.2952 20.769C14.2489 20.592 14.2381 20.4076 14.2631 20.2264C14.2882 20.0452 14.3488 19.8708 14.4413 19.713C14.5339 19.5552 14.6566 19.4172 14.8025 19.3069C14.9484 19.1961 15.1146 19.1152 15.2918 19.0688C15.469 19.0224 15.6536 19.0115 15.835 19.0365C16.0165 19.0616 16.1912 19.1223 16.3491 19.215C16.5071 19.3077 16.6452 19.4307 16.7555 19.5769L19.1065 22.6809L25.0175 13.1889C25.2135 12.8755 25.5259 12.6526 25.886 12.5692C26.2461 12.4858 26.6246 12.5486 26.9385 12.7439C27.5915 13.1499 27.7925 14.0099 27.3845 14.6639L20.4005 25.8739C20.2813 26.0661 20.1169 26.2263 19.9218 26.3407C19.7266 26.455 19.5065 26.5199 19.2805 26.5299C19.2585 26.5319 19.2385 26.5319 19.2165 26.5319Z" fill="#0A07FE"/>
</svg>
