<?xml version="1.0" standalone="no"?>
<!DOCTYPE svg PUBLIC "-//W3C//DTD SVG 20010904//EN"
 "http://www.w3.org/TR/2001/REC-SVG-20010904/DTD/svg10.dtd">
<svg version="1.0" xmlns="http://www.w3.org/2000/svg"
 width="704.000000pt" height="704.000000pt" viewBox="0 0 704.000000 704.000000"
 preserveAspectRatio="xMidYMid meet">
<metadata>
Created by potrace 1.14, written by Peter Selinger 2001-2017
</metadata>
<g transform="translate(0.000000,704.000000) scale(0.100000,-0.100000)"
fill="#000000" stroke="none">
<path d="M2 4508 l3 -1973 490 0 490 0 2 960 c0 528 2 968 2 978 1 16 78 17
1479 17 l1478 0 -1 -962 c0 -530 1 -970 3 -978 3 -13 63 -15 485 -14 265 1
487 2 492 3 7 1 10 333 9 976 l0 975 501 0 502 0 0 -968 c0 -533 2 -973 5
-978 4 -5 205 -9 495 -9 l488 0 0 1970 0 1970 -493 3 -492 2 -1 -22 c0 -13 -2
-239 -2 -503 l-2 -480 -500 0 -500 0 -1 500 0 500 -492 3 c-390 2 -492 0 -493
-10 0 -7 -2 -233 -2 -503 l-2 -490 -1475 -2 c-811 -1 -1477 2 -1480 7 -3 4 -5
231 -4 504 l0 496 -493 0 -493 0 2 -1972z"/>
<path d="M1979 3525 c-5 -1 -4 -985 0 -986 3 -1 225 -2 494 -3 513 -1 496 -2
487 39 -1 6 -1 46 0 90 1 44 1 94 0 110 -1 17 -2 35 -2 40 0 6 0 55 0 110 0
55 1 118 2 140 2 22 2 49 2 60 -4 93 -3 176 2 184 4 5 2 12 -4 16 -6 4 -8 10
-5 15 5 8 7 122 3 170 -1 14 -57 16 -490 16 -268 0 -489 -1 -489 -1z"/>
<path d="M10 1552 c-6 -2 -10 -176 -10 -493 l0 -489 493 2 492 3 1 488 c0 486
0 487 -20 488 -65 3 -948 3 -956 1z"/>
<path d="M1978 1550 c0 -3 -2 -224 -3 -492 l-2 -487 493 0 492 -1 2 73 c1 39
1 77 1 82 0 11 -1 101 0 153 0 115 0 193 -2 215 0 6 0 46 0 87 0 41 0 82 0 90
0 8 0 44 0 80 0 36 0 74 0 85 0 11 0 39 1 63 1 24 0 46 -4 49 -7 8 -975 10
-978 3z"/>
<path d="M3934 1551 c-2 -2 -4 -224 -4 -493 l0 -488 489 0 c382 0 490 3 493
13 2 6 4 228 4 491 l-1 480 -488 0 c-269 1 -491 -1 -493 -3z"/>
<path d="M5959 1550 l-22 -5 0 -485 0 -485 494 0 494 0 0 487 c0 318 -3 488
-10 489 -41 4 -939 3 -956 -1z"/>
</g>
</svg>
