<svg width="531" height="448" viewBox="0 0 531 448" fill="none" xmlns="http://www.w3.org/2000/svg">
    <path d="M112.464 190.103H75.0316C68.7431 190.121 62.7178 192.629 58.2742 197.079C53.8307 201.529 51.331 207.558 51.3221 213.846C51.325 216.395 51.7444 218.926 52.5635 221.339H23.2062C17.0087 221.474 11.1104 224.03 6.77489 228.461C2.4394 232.892 0.0115967 238.844 0.0115967 245.043C0.0115967 251.242 2.4394 257.195 6.77489 261.625C11.1104 266.056 17.0087 268.612 23.2062 268.747H83.4642C89.743 268.726 95.7588 266.223 100.199 261.783C104.638 257.343 107.142 251.328 107.163 245.049C107.158 242.5 106.739 239.969 105.921 237.556H112.464C118.745 237.538 124.764 235.034 129.205 230.591C133.646 226.148 136.147 220.128 136.162 213.846C136.156 207.559 133.659 201.53 129.217 197.08C124.775 192.629 118.751 190.121 112.464 190.103Z" fill="#7CCEF2"/>
    <path d="M503.671 18.2646H466.228C453.139 18.2646 442.529 28.8748 442.529 41.963V41.9742C442.529 55.0624 453.139 65.6725 466.228 65.6725H503.671C516.759 65.6725 527.369 55.0624 527.369 41.9742V41.963C527.369 28.8748 516.759 18.2646 503.671 18.2646Z" fill="#7CCEF2"/>
    <path d="M488.438 400.614H428.192C425.036 400.546 421.897 401.108 418.962 402.269C416.026 403.429 413.351 405.164 411.095 407.372C408.838 409.58 407.046 412.216 405.822 415.126C404.598 418.036 403.967 421.162 403.967 424.318C403.967 427.475 404.598 430.6 405.822 433.51C407.046 436.42 408.838 439.057 411.095 441.265C413.351 443.473 416.026 445.208 418.962 446.368C421.897 447.529 425.036 448.091 428.192 448.022H488.438C494.636 447.888 500.534 445.331 504.87 440.901C509.205 436.47 511.633 430.517 511.633 424.318C511.633 418.119 509.205 412.167 504.87 407.736C500.534 403.306 494.636 400.749 488.438 400.614Z" fill="#7CCEF2"/>
    <path d="M458.958 233.529H467.983C474.414 233.529 480.581 230.975 485.128 226.428C489.675 221.881 492.23 215.713 492.23 209.283C492.23 202.852 489.675 196.685 485.128 192.138C480.581 187.591 474.414 185.037 467.983 185.037H444.017C442.844 185.04 441.692 184.724 440.685 184.122C439.678 183.52 438.854 182.655 438.302 181.62C437.75 180.585 437.49 179.419 437.551 178.248C437.612 177.076 437.992 175.943 438.648 174.971C441.421 170.945 442.907 166.171 442.909 161.282C442.913 158.516 442.44 155.769 441.512 153.163C440.909 151.394 440.74 149.506 441.017 147.657C441.295 145.809 442.011 144.054 443.106 142.539C444.201 141.024 445.643 139.794 447.312 138.952C448.98 138.109 450.826 137.678 452.695 137.696C459.126 137.696 465.293 135.141 469.84 130.594C474.387 126.047 476.942 119.88 476.942 113.45C476.949 110.257 476.326 107.094 475.108 104.143C473.89 101.192 472.101 98.5107 469.844 96.2527C467.587 93.9947 464.906 92.2047 461.956 90.9853C459.005 89.766 455.843 89.1413 452.651 89.1472H424.221C423.972 84.0634 421.781 79.2692 418.099 75.7543C414.418 72.2393 409.527 70.2719 404.437 70.2579H401.082C401.065 63.9782 398.562 57.9607 394.122 53.5202C389.681 49.0797 383.664 46.5773 377.384 46.5596H268.6C262.32 46.5773 256.303 49.0797 251.862 53.5202C247.422 57.9607 244.919 63.9782 244.901 70.2579H239.712C234.624 70.2747 229.737 72.2435 226.058 75.7581C222.379 79.2728 220.189 84.0653 219.939 89.1472H197.796C194.611 89.1472 191.459 89.7744 188.517 90.9929C185.575 92.2114 182.902 93.9973 180.651 96.2488C178.399 98.5003 176.613 101.173 175.395 104.115C174.176 107.057 173.549 110.21 173.549 113.394C173.546 116.164 174.018 118.914 174.947 121.524C175.55 123.293 175.72 125.18 175.442 127.028C175.165 128.876 174.448 130.631 173.353 132.145C172.258 133.659 170.815 134.888 169.147 135.729C167.478 136.571 165.632 136.999 163.763 136.98C157.333 136.98 151.166 139.535 146.619 144.082C142.072 148.629 139.517 154.796 139.517 161.226C139.517 167.657 142.072 173.824 146.619 178.371C151.166 182.918 157.333 185.473 163.763 185.473H208.498C202.213 186.693 196.664 190.346 193.057 195.636C189.451 200.926 188.079 207.426 189.24 213.723C189.691 215.954 189.642 218.257 189.097 220.467C188.553 222.677 187.526 224.739 186.09 226.505C184.654 228.271 182.845 229.697 180.793 230.682C178.741 231.666 176.496 232.184 174.22 232.198H174.019C167.588 232.198 161.421 234.753 156.874 239.3C152.327 243.847 149.773 250.014 149.773 256.445C149.773 259.629 150.4 262.782 151.618 265.723C152.837 268.665 154.623 271.338 156.874 273.59C159.126 275.841 161.799 277.627 164.74 278.845C167.682 280.064 170.835 280.691 174.019 280.691C175.069 280.689 176.098 280.983 176.989 281.539C177.88 282.095 178.597 282.89 179.056 283.835C179.516 284.779 179.701 285.833 179.589 286.877C179.478 287.921 179.074 288.913 178.425 289.739C175.175 294.018 173.44 299.257 173.495 304.631C173.549 310.005 175.39 315.208 178.727 319.42C179.327 320.17 179.703 321.073 179.813 322.027C179.922 322.98 179.76 323.945 179.345 324.811C178.931 325.677 178.28 326.408 177.468 326.92C176.657 327.433 175.717 327.705 174.757 327.708C168.327 327.708 162.159 330.262 157.612 334.809C153.065 339.356 150.511 345.523 150.511 351.954C150.511 358.384 153.065 364.552 157.612 369.099C162.159 373.646 168.327 376.2 174.757 376.2H192.517C192.532 381.447 194.621 386.474 198.33 390.185C202.039 393.896 207.066 395.989 212.312 396.007H233.505C234.461 401.508 237.323 406.497 241.588 410.1C245.854 413.703 251.251 415.69 256.834 415.712H317.126C322.709 415.69 328.107 413.703 332.372 410.1C336.638 406.497 339.499 401.508 340.455 396.007H377.071C382.319 395.992 387.349 393.9 391.06 390.189C394.771 386.478 396.862 381.449 396.877 376.2H413.753C417.647 376.198 421.484 375.259 424.938 373.462C428.392 371.665 431.363 369.063 433.6 365.875C435.837 362.688 437.273 359.009 437.788 355.149C438.302 351.289 437.88 347.362 436.557 343.7C435.932 342.012 435.725 340.198 435.951 338.412C436.178 336.626 436.832 334.921 437.859 333.442C438.885 331.963 440.254 330.754 441.847 329.917C443.441 329.081 445.214 328.641 447.014 328.636H452.606C459.036 328.636 465.203 326.081 469.751 321.534C474.298 316.987 476.852 310.82 476.852 304.389C476.852 297.959 474.298 291.792 469.751 287.245C465.203 282.698 459.036 280.143 452.606 280.143C451.556 280.145 450.526 279.851 449.635 279.295C448.744 278.739 448.028 277.944 447.568 277C447.108 276.056 446.924 275.001 447.035 273.957C447.147 272.913 447.55 271.921 448.199 271.095C451.402 266.883 453.135 261.736 453.131 256.445C453.136 252.883 452.349 249.365 450.828 246.145C450.216 244.784 449.954 243.293 450.066 241.806C450.178 240.318 450.66 238.883 451.468 237.629C452.276 236.376 453.384 235.344 454.692 234.628C456 233.912 457.467 233.534 458.958 233.529Z" fill="#7CCEF2"/>
    <path d="M522.236 203.971C521.925 201.257 521.47 198.561 520.871 195.896C519.712 190.739 518.08 185.7 515.995 180.843C512.01 171.479 506.365 162.912 499.331 155.556C492.537 148.336 484.304 142.621 475.163 138.781C466.25 135.087 456.497 133.899 446.958 135.347C445.914 135.522 444.966 136.062 444.283 136.869C443.599 137.677 443.224 138.701 443.224 139.759C443.224 140.818 443.599 141.842 444.283 142.65C444.966 143.457 445.914 143.997 446.958 144.171C454.134 145.407 460.829 148.6 466.306 153.398C471.523 158.028 475.694 163.716 478.541 170.084C481.335 176.165 483.006 182.701 483.473 189.376C483.675 192.479 483.589 195.594 483.216 198.681C483.156 199.009 483.111 199.333 483.081 199.654C483.026 200.068 482.97 200.482 482.88 200.929L482.41 203.423C482.198 204.664 481.907 206.275 481.471 207.896C480.22 212.995 477.83 217.744 474.481 221.787C471.181 225.61 467.151 228.735 462.626 230.98C457.491 233.584 452.029 235.487 446.388 236.639C443.404 237.28 440.387 237.758 437.351 238.07C435.763 238.238 434.253 238.339 432.878 238.394C432.263 238.394 431.647 238.394 431.077 238.394H430.54C429.919 238.236 429.272 238.206 428.639 238.305C427.603 238.439 426.646 238.932 425.935 239.698C425.224 240.464 424.804 241.455 424.747 242.499C424.701 243.184 424.82 243.871 425.094 244.501L431.346 299.894C431.467 300.993 431.992 302.008 432.818 302.743C433.644 303.479 434.713 303.882 435.819 303.875C436.033 303.873 436.246 303.855 436.456 303.819C437.016 303.741 437.228 303.696 437.452 303.652L441.713 302.623C443.033 302.265 444.352 301.873 445.739 301.437C448.244 300.665 450.738 299.804 453.366 298.809C458.325 296.926 463.179 294.775 467.905 292.367C477.745 287.417 486.859 281.141 494.992 273.713C503.672 265.779 510.676 256.189 515.593 245.507C520.315 235.008 522.715 223.613 522.627 212.101C522.65 209.675 522.526 207.136 522.236 203.971Z" fill="white" stroke="#07038C" stroke-width="2" stroke-miterlimit="10"/>
    <path d="M167.566 85.7589C167.286 86.4075 167.029 87.0562 166.794 87.7272C161.594 102.624 159.178 124.891 158.966 126.199C157.66 131.939 158.139 137.94 160.338 143.4C162.536 148.861 166.349 153.519 171.268 156.753L199.92 130.896L198.187 158.923C203.426 156.704 207.882 152.969 210.981 148.198C225.52 125.964 236.301 119.019 252.361 121.659C277.759 125.853 274.907 151.038 274.505 153.901C272.268 169.816 260.268 179.534 240.953 194.062C218.195 211.162 187.014 234.592 187.014 279.808C187.014 280.389 187.014 280.926 187.014 281.53C187.489 292.847 192.311 303.545 200.475 311.396C208.639 319.248 219.517 323.648 230.843 323.682H430.697C442.319 323.649 453.456 319.019 461.676 310.803C469.897 302.587 474.532 291.452 474.57 279.83C474.535 268.205 469.901 257.066 461.681 248.846C453.461 240.626 442.322 235.992 430.697 235.956H280.645C288.295 230.288 295.561 224.12 302.397 217.492C308.351 219.223 314.41 220.572 320.537 221.529C318.774 215.577 316.6 209.755 314.028 204.105C318.371 198.243 322.012 191.892 324.876 185.182C331.085 184.526 337.225 183.336 343.229 181.626C339.26 176.81 334.891 172.339 330.166 168.261C330.591 166.226 330.971 164.157 331.285 162.021C332.014 156.899 332.317 151.726 332.19 146.554C337.563 143.389 342.655 139.771 347.411 135.739C341.806 132.987 335.977 130.716 329.987 128.95C328.397 121.836 325.913 114.952 322.595 108.462C326.088 103.268 329.084 97.756 331.542 91.9994C325.289 91.9514 319.046 92.5019 312.898 93.6434C308.229 88.0156 302.802 83.0625 296.771 78.9256C297.359 72.7063 297.359 66.4456 296.771 60.2264C291.269 63.1766 286.05 66.6284 281.181 70.5378C274.898 68.0073 268.353 66.1843 261.666 65.1025L260.089 64.8229C257.935 58.9865 255.317 53.3318 252.26 47.9131C248.545 52.9298 245.264 58.2539 242.452 63.8275C237.09 64.0323 231.76 64.7551 226.538 65.986L220.733 66.4333L210.668 51.1564L203.052 67.8201L192.595 68.6365C189.563 68.7605 186.569 69.3645 183.726 70.4259" fill="white"/>
    <path d="M167.566 85.7588C167.286 86.4075 167.029 87.0562 166.794 87.7272C161.594 102.624 159.178 124.891 158.966 126.199C157.66 131.939 158.139 137.94 160.338 143.4C162.536 148.861 166.349 153.519 171.268 156.753L199.92 130.896L198.187 158.923C203.426 156.704 207.882 152.969 210.981 148.198C225.52 125.964 236.301 119.019 252.361 121.659C277.759 125.853 274.907 151.038 274.505 153.901C272.268 169.816 260.268 179.534 240.953 194.062C218.195 211.162 187.014 234.592 187.014 279.808C187.014 280.389 187.014 280.926 187.014 281.53C187.489 292.847 192.311 303.545 200.475 311.396C208.639 319.248 219.517 323.648 230.843 323.682H430.697C442.319 323.649 453.456 319.019 461.676 310.803C469.897 302.587 474.532 291.452 474.57 279.83V279.83C474.535 268.205 469.901 257.066 461.681 248.846C453.461 240.626 442.322 235.992 430.697 235.956H280.645C288.295 230.288 295.561 224.12 302.397 217.492C308.351 219.223 314.41 220.572 320.537 221.529C318.774 215.577 316.6 209.755 314.028 204.105C318.371 198.243 322.012 191.892 324.876 185.182C331.085 184.526 337.225 183.336 343.229 181.626C339.26 176.81 334.891 172.339 330.166 168.261C330.591 166.226 330.971 164.157 331.285 162.021C332.014 156.899 332.317 151.726 332.19 146.554C337.563 143.389 342.655 139.771 347.411 135.739C341.806 132.987 335.977 130.716 329.987 128.95C328.397 121.836 325.913 114.952 322.595 108.462C326.088 103.268 329.084 97.756 331.542 91.9994C325.289 91.9514 319.046 92.5019 312.898 93.6434C308.229 88.0156 302.802 83.0625 296.771 78.9256C297.359 72.7063 297.359 66.4456 296.771 60.2264C291.269 63.1766 286.05 66.6284 281.181 70.5378C274.898 68.0073 268.353 66.1843 261.666 65.1025L260.089 64.8229C257.935 58.9864 255.317 53.3318 252.26 47.9131C248.545 52.9298 245.264 58.2539 242.452 63.8275C237.09 64.0323 231.76 64.7551 226.538 65.986L220.733 66.4334L210.668 51.1564L203.052 67.8201L192.595 68.6365C189.563 68.7605 186.569 69.3645 183.726 70.4259" stroke="#07038C" stroke-width="2" stroke-miterlimit="10"/>
    <path d="M280.645 235.934H215.768" stroke="#07038C" stroke-width="2" stroke-miterlimit="10"/>
    <path d="M174.198 123.347C176.224 122.278 178.019 120.819 179.481 119.055C180.944 117.291 182.044 115.256 182.719 113.066C183.394 110.877 183.631 108.576 183.416 106.295C183.201 104.013 182.539 101.797 181.467 99.772C177.379 101.937 174.318 105.635 172.955 110.056C171.592 114.476 172.039 119.256 174.198 123.347V123.347Z" stroke="#07038C" stroke-width="2" stroke-miterlimit="10"/>
    <path d="M173.281 109.077L182.172 114.613" stroke="#07038C" stroke-width="7" stroke-miterlimit="10"/>
    <path d="M165.754 151.217L199.126 122.017C199.981 121.298 201.029 120.848 202.139 120.724C203.248 120.6 204.37 120.807 205.362 121.318C206.354 121.83 207.173 122.624 207.715 123.6C208.257 124.576 208.499 125.69 208.409 126.803L206.373 153.644" stroke="#07038C" stroke-width="2" stroke-miterlimit="10"/>
    <path d="M187.395 267.461C201.71 267.461 201.71 298.775 216.025 298.775C230.34 298.775 230.34 267.461 244.655 267.461C258.971 267.461 258.959 298.775 273.275 298.775C287.59 298.775 287.59 267.461 301.905 267.461C316.22 267.461 316.22 298.775 330.535 298.775C344.85 298.775 344.85 267.461 359.166 267.461C373.481 267.461 373.481 298.775 387.796 298.775C402.111 298.775 402.122 267.461 416.438 267.461C430.753 267.461 430.753 298.775 445.068 298.775C459.383 298.775 459.394 267.461 473.709 267.461" stroke="#07038C" stroke-width="2" stroke-miterlimit="10"/>
    <path d="M165.754 134.117V143.869" stroke="#07038C" stroke-width="2" stroke-miterlimit="10"/>
    <path d="M205.099 80.6812C214.191 74.5301 219.078 89.4492 231.436 86.7875C237.733 85.4342 244.588 69.3744 252.685 70.4928C259.261 71.3987 261.554 88.1407 268.756 91.932C274.583 94.9963 289.558 86.5638 295.497 92.1892C300.306 96.7298 293.394 112.477 298.125 119.03C304.007 127.183 321.197 132.831 321.242 144.115C321.242 153.778 304.075 161.238 299.702 171.761C295.944 180.787 303.851 197.82 296.76 206.576C290.553 214.237 272.156 210.524 263.343 217.38C258.736 220.959 256.633 228.933 253.692 235.923" stroke="#07038C" stroke-width="2" stroke-miterlimit="10"/>
    <path d="M498.862 370.418C490.552 370.418 490.552 363.708 482.243 363.708C473.933 363.708 473.922 370.418 465.612 370.418C457.303 370.418 457.292 363.708 448.982 363.708C440.673 363.708 440.661 370.418 432.341 370.418C424.02 370.418 424.031 363.708 415.711 363.708" stroke="#07038C" stroke-width="2" stroke-miterlimit="10"/>
    <path d="M478.53 355.309C470.209 355.309 470.209 348.599 461.9 348.599C453.59 348.599 453.579 355.309 445.269 355.309C436.96 355.309 436.949 348.599 428.639 348.599C420.33 348.599 420.318 355.309 411.998 355.309C403.677 355.309 403.688 348.599 395.367 348.599" stroke="#07038C" stroke-width="2" stroke-miterlimit="10"/>
    <path d="M139.573 312.14C131.252 312.14 131.252 305.43 122.943 305.43C114.633 305.43 114.633 312.14 106.313 312.14C97.9919 312.14 98.0031 305.43 89.6824 305.43C81.3617 305.43 81.3617 312.14 73.0522 312.14C64.7427 312.14 64.7315 305.43 56.4108 305.43" stroke="#07038C" stroke-width="2" stroke-miterlimit="10"/>
    <path d="M119.23 296.986C110.909 296.986 110.909 290.276 102.6 290.276C94.29 290.276 94.29 296.986 85.9693 296.986C77.6486 296.986 77.6598 290.276 69.3391 290.276C61.0184 290.276 61.0296 296.986 52.7089 296.986C44.3882 296.986 44.3882 290.276 36.0675 290.276" stroke="#07038C" stroke-width="2" stroke-miterlimit="10"/>
    <path d="M530.277 103.127C521.967 103.127 521.967 96.417 513.647 96.417C505.326 96.417 505.337 103.127 497.016 103.127C488.696 103.127 488.707 96.417 480.386 96.417C472.065 96.417 472.077 103.127 463.756 103.127C455.435 103.127 455.435 96.417 447.115 96.417" stroke="#07038C" stroke-width="2" stroke-miterlimit="10"/>
    <path d="M509.934 87.9617C501.624 87.9617 501.624 81.2515 493.303 81.2515C484.983 81.2515 484.994 87.9617 476.673 87.9617C468.352 87.9617 468.364 81.2515 460.054 81.2515C451.745 81.2515 451.733 87.9617 443.413 87.9617C435.092 87.9617 435.092 81.2515 426.771 81.2515" stroke="#07038C" stroke-width="2" stroke-miterlimit="10"/>
    <path d="M302.587 22.9954C294.278 22.9954 294.278 16.2852 285.968 16.2852C277.659 16.2852 277.647 22.9954 269.338 22.9954C261.028 22.9954 261.017 16.2852 252.708 16.2852C244.398 16.2852 244.387 22.9954 236.066 22.9954C227.746 22.9954 227.757 16.2852 219.436 16.2852" stroke="#07038C" stroke-width="2" stroke-miterlimit="10"/>
    <path d="M282.289 7.85282C273.979 7.85282 273.979 1.14258 265.67 1.14258C257.36 1.14258 257.349 7.85282 249.039 7.85282C240.73 7.85282 240.719 1.14258 232.409 1.14258C224.1 1.14258 224.088 7.85282 215.768 7.85282C207.447 7.85282 207.458 1.14258 199.138 1.14258" stroke="#07038C" stroke-width="2" stroke-miterlimit="10"/>
    <path d="M168.382 88.7111C173.296 88.6734 178.043 86.9211 181.803 83.7567C183.499 82.2778 184.792 80.3933 185.563 78.2793C186.333 76.1652 186.556 73.8904 186.209 71.6671L131.219 26.4624L168.382 88.7111Z" fill="#F1B830"/>
    <path d="M168.941 80.2561C168.941 80.2561 177.251 80.4015 179.152 71.2085" stroke="#07038C" stroke-width="2" stroke-miterlimit="10"/>
    <path d="M162.567 69.5089C164.116 69.4722 165.604 68.8921 166.769 67.8699C167.934 66.8478 168.703 65.4486 168.941 63.917" stroke="#07038C" stroke-width="2" stroke-miterlimit="10"/>
    <path d="M154.816 59.2421C156.053 59.2115 157.24 58.7464 158.168 57.9285C159.097 57.1105 159.708 55.9918 159.894 54.7686" stroke="#07038C" stroke-width="2" stroke-miterlimit="10"/>
    <path d="M147.513 48.4386C148.279 48.4202 149.013 48.1317 149.586 47.6241C150.159 47.1165 150.534 46.4226 150.645 45.665" stroke="#07038C" stroke-width="2" stroke-miterlimit="10"/>
    <path d="M468.106 255.394C476.494 252.441 479.592 260.572 487.656 254.096C491.726 250.831 489.523 240.564 493.247 235.084C496.312 230.61 506.959 228.989 508.737 222.782C510.224 217.581 502.329 210.48 502.329 203.971C502.329 195.348 509.509 186.312 507.015 179.903C504.051 172.287 492.308 170.956 487.108 165.778C481.516 160.265 480.196 148.857 473.687 145.446C471.093 144.239 468.227 143.738 465.378 143.992" stroke="#07038C" stroke-width="2" stroke-miterlimit="10"/>
    <path d="M384.228 134.587C384.228 134.587 410.779 118.829 458.175 120.876C445.336 135.918 441.277 145.816 449.575 162.893C435.304 149.473 416.046 140.447 384.228 134.587Z" fill="#F1B830"/>
    <path d="M445.582 127.25C438.4 127.579 431.24 128.285 424.132 129.364" stroke="#07038C" stroke-width="2" stroke-miterlimit="10"/>
    <path d="M404.874 133.01C409.693 131.563 414.623 130.515 419.614 129.878" stroke="#07038C" stroke-width="2" stroke-miterlimit="10"/>
</svg>
