<svg width="566" height="172" viewBox="0 0 566 172" fill="none" xmlns="http://www.w3.org/2000/svg">
    <rect x="0.5" y="83.7939" width="35.3125" height="4.41026" rx="2.20513" fill="#D0ECF8"/>
    <rect x="46.8477" y="79.3857" width="30.8984" height="13.227" rx="6.61348" fill="#D0ECF8" stroke="#D0ECF8" stroke-width="4.41406"/>
    <rect x="88.7812" y="83.7939" width="35.3125" height="4.41026" rx="2.20513" fill="#D0ECF8"/>
    <rect x="135.129" y="79.3857" width="30.8984" height="13.227" rx="6.61348" fill="#D0ECF8" stroke="#D0ECF8" stroke-width="4.41406"/>
    <rect x="353.625" y="83.7939" width="35.3125" height="4.41026" rx="2.20513" fill="#D0ECF8"/>
    <rect x="399.973" y="79.3857" width="30.8984" height="13.227" rx="6.61348" fill="#D0ECF8" stroke="#D0ECF8" stroke-width="4.41406"/>
    <rect x="177.062" y="83.7939" width="35.3125" height="4.41026" rx="2.20513" fill="#D0ECF8"/>
    <rect x="223.41" y="79.3857" width="30.8984" height="13.227" rx="6.61348" fill="#D0ECF8" stroke="#D0ECF8" stroke-width="4.41406"/>
    <rect x="265.344" y="83.7939" width="35.3125" height="4.41026" rx="2.20513" fill="#D0ECF8"/>
    <rect x="311.691" y="79.3857" width="30.8984" height="13.227" rx="6.61348" fill="#D0ECF8" stroke="#D0ECF8" stroke-width="4.41406"/>
    <rect x="441.906" y="83.7939" width="35.3125" height="4.41026" rx="2.20513" fill="#D0ECF8"/>
    <rect x="530.188" y="83.7939" width="35.3125" height="4.41026" rx="2.20513" fill="#D0ECF8"/>
    <rect x="488.254" y="79.3857" width="30.8984" height="13.227" rx="6.61348" fill="#D0ECF8" stroke="#D0ECF8" stroke-width="4.41406"/>
    <path d="M106.437 59.5383C102.831 59.5383 99.6244 57.8007 97.6094 55.1215C95.5944 57.8007 92.3875 59.5383 88.7812 59.5383C85.175 59.5383 81.9681 57.8007 79.9531 55.1215C77.9381 57.8007 74.7313 59.5383 71.125 59.5383C67.5187 59.5383 64.3119 57.8007 62.2969 55.1215C60.2819 57.8007 57.075 59.5383 53.4688 59.5383V55.1281C57.1192 55.1281 60.0898 52.16 60.0898 48.5127H64.5039C64.5039 52.16 67.4746 55.1281 71.125 55.1281C74.7754 55.1281 77.7461 52.16 77.7461 48.5127H82.1602C82.1602 52.16 85.1308 55.1281 88.7812 55.1281C92.4317 55.1281 95.4023 52.16 95.4023 48.5127H99.8164C99.8164 52.16 102.787 55.1281 106.437 55.1281V59.5383Z" fill="#0A07FE"/>
    <path d="M439.699 154.36C436.093 154.36 432.886 152.622 430.871 149.943C428.856 152.622 425.649 154.36 422.043 154.36C418.437 154.36 415.23 152.622 413.215 149.943C411.2 152.622 407.993 154.36 404.387 154.36V149.949C408.037 149.949 411.008 146.981 411.008 143.334H415.422C415.422 146.981 418.393 149.949 422.043 149.949C425.693 149.949 428.664 146.981 428.664 143.334H433.078C433.078 146.981 436.049 149.949 439.699 149.949V154.36Z" fill="#0A07FE"/>
    <path d="M408.068 45.9724L395.118 35.4588C391.294 32.3539 388.707 27.9854 387.826 23.1418C387.177 19.5736 385.537 16.2577 383.095 13.5748L377.39 7.30489C375.845 5.60627 373.889 4.33319 371.71 3.60706L361.502 0.208644C361.088 0.0707267 360.654 0 360.218 0C357.976 0 356.157 1.8165 356.157 4.05736V4.28722C356.157 5.9658 357.192 7.4711 358.76 8.07345L368.968 11.9964C370.611 12.6283 372.019 13.754 372.995 15.218L374.437 17.3787C375.54 19.0326 375.703 21.1402 374.868 22.9426L372.334 28.4109C372.55 27.6188 372.675 26.7913 372.675 25.9331C372.675 20.7253 368.449 16.5029 363.236 16.5029C358.024 16.5029 353.798 20.7253 353.798 25.9331C353.798 31.141 358.024 35.3634 363.236 35.3634C363.676 35.3634 364.105 35.3233 364.528 35.2643C360.811 38.5484 358.668 41.2957 358.042 46.3077C357.824 48.048 360.594 48.5128 362.456 48.5128C370.227 48.5128 366.274 46.5323 371.495 44.7936L377.394 48.3299C382.319 49.6154 382.319 49.6154 386.733 47.4103C390.044 46.3077 391.147 46.9065 391.147 43C391.147 46.9065 398.26 49.5087 402.169 49.5087C405.493 46.3077 406.022 48.3299 408.068 45.9724Z" fill="#D0ECF8"/>
    <path d="M399.972 50.718C396.366 50.718 393.159 48.9803 391.144 46.3011C389.129 48.9803 385.923 50.718 382.316 50.718C378.71 50.718 375.503 48.9803 373.488 46.3011C371.473 48.9803 368.266 50.718 364.66 50.718C358.575 50.718 353.625 45.7719 353.625 39.6924H358.039C358.039 43.3396 361.01 46.3077 364.66 46.3077C368.311 46.3077 371.281 43.3396 371.281 39.6924H375.695C375.695 43.3396 378.666 46.3077 382.316 46.3077C385.967 46.3077 388.937 43.3396 388.937 39.6924H393.351C393.351 43.3396 396.322 46.3077 399.972 46.3077C403.623 46.3077 406.593 43.3396 406.593 39.6924H411.008C411.008 45.7719 406.057 50.718 399.972 50.718Z" fill="#0A07FE"/>
    <path d="M102.757 167.254L115.707 156.74C119.531 153.635 122.118 149.267 123 144.423C123.649 140.855 125.288 137.539 127.731 134.856L133.435 128.586C134.981 126.888 136.937 125.614 139.116 124.888L149.323 121.49C149.737 121.352 150.172 121.281 150.607 121.281C152.85 121.281 154.668 123.098 154.668 125.339V125.568C154.668 127.247 153.633 128.752 152.065 129.355L141.858 133.278C140.214 133.91 138.807 135.035 137.83 136.499L136.388 138.66C135.285 140.314 135.122 142.421 135.957 144.224L138.492 149.692C138.276 148.9 138.151 148.073 138.151 147.214C138.151 142.007 142.377 137.784 147.589 137.784C152.801 137.784 157.027 142.007 157.027 147.214C157.027 152.422 152.801 156.645 147.589 156.645C147.149 156.645 146.721 156.605 146.297 156.546C150.014 159.83 152.157 162.577 152.784 167.589C153.001 169.329 150.231 169.794 148.369 169.794C140.599 169.794 144.551 167.814 139.33 166.075L133.431 169.611C128.506 170.897 128.506 170.897 124.092 168.692C120.782 167.589 119.678 168.188 119.678 164.281C119.678 168.188 112.566 170.79 108.656 170.79C105.332 167.589 104.803 169.611 102.757 167.254Z" fill="#D0ECF8"/>
    <path d="M110.852 172C114.458 172 117.665 170.263 119.68 167.583C121.695 170.263 124.902 172 128.508 172C132.114 172 135.321 170.263 137.336 167.583C139.351 170.263 142.558 172 146.164 172C152.249 172 157.199 167.054 157.199 160.975H152.785C152.785 164.622 149.815 167.59 146.164 167.59C142.514 167.59 139.543 164.622 139.543 160.975H135.129C135.129 164.622 132.158 167.59 128.508 167.59C124.858 167.59 121.887 164.622 121.887 160.975H117.473C117.473 164.622 114.502 167.59 110.852 167.59C107.201 167.59 104.231 164.622 104.231 160.975H99.8167C99.8167 167.054 104.767 172 110.852 172Z" fill="#0A07FE"/>
</svg>
