<svg width="40" height="40" viewBox="0 0 40 40" fill="none" xmlns="http://www.w3.org/2000/svg">
    <path d="M10.2071 39.5L0.5 29.7929V20V10.2071L10.2071 0.5H20H29.7929L39.5 10.2071V20V29.7929L29.7929 39.5H20H10.2071Z" fill="black" stroke="black"/>
    <mask id="path-2-inside-1_2854_6531" fill="white">
        <ellipse cx="20" cy="30.1547" rx="2" ry="1.84615"/>
    </mask>
    <path d="M20 30.1547C20 30.1131 20.0098 30.0725 20.0246 30.0402C20.0385 30.01 20.0528 29.9951 20.0577 29.9906C20.0662 29.9827 20.0509 30.0009 20 30.0009V34.0009C22.0554 34.0009 24 32.4266 24 30.1547H20ZM20 30.0009C19.9491 30.0009 19.9338 29.9827 19.9423 29.9906C19.9472 29.9951 19.9615 30.01 19.9754 30.0402C19.9902 30.0725 20 30.1131 20 30.1547H16C16 32.4266 17.9446 34.0009 20 34.0009V30.0009ZM20 30.1547C20 30.1964 19.9902 30.237 19.9754 30.2693C19.9615 30.2995 19.9472 30.3144 19.9423 30.3189C19.9338 30.3268 19.9491 30.3086 20 30.3086V26.3086C17.9446 26.3086 16 27.8829 16 30.1547H20ZM20 30.3086C20.0509 30.3086 20.0662 30.3268 20.0577 30.3189C20.0528 30.3144 20.0385 30.2995 20.0246 30.2693C20.0098 30.237 20 30.1964 20 30.1547H24C24 27.8829 22.0554 26.3086 20 26.3086V30.3086Z" fill="#F8D7D4" mask="url(#path-2-inside-1_2854_6531)"/>
    <path d="M19.5113 24.2066C19.6252 24.732 20.3748 24.7321 20.4887 24.2066L23.153 11.9097C23.5885 9.8994 22.0569 8.00037 20 8.00037C17.9431 8.00037 16.4115 9.8994 16.847 11.9097L19.5113 24.2066Z" fill="#F8D7D4"/>
</svg>
